<svg id="icon-leaf" width="61" height="60" viewBox="0 0 61 60" fill="none" xmlns="http://www.w3.org/2000/svg">
<rect x="0.75" width="60" height="60" fill="#68B738"/>
<g clip-path="url(#clip0_95_18)">
<path d="M43.5938 16.767C43.4934 16.317 43.1147 16 42.6825 16C42.6806 16 42.6788 16 42.6769 16C37.7391 16.033 25.7316 16.916 20.8837 24.38C18.3656 28.258 18.1491 33.293 20.2397 39.345C20.2556 39.392 20.2884 39.424 20.31 39.467C19.5628 41.44 19.2731 42.753 19.2656 42.79C19.1569 43.33 19.4803 43.862 19.9866 43.978C20.0522 43.993 20.1178 44 20.1834 44C20.6156 44 21.0047 43.679 21.0994 43.21C21.1191 43.108 23.5078 32.837 31.9528 26.832C32.3841 26.526 32.5003 25.905 32.2125 25.445C31.9247 24.985 31.3434 24.86 30.9122 25.168C26.1234 28.573 23.1741 33.176 21.4397 36.824C20.1984 32.246 20.5237 28.447 22.4259 25.519C26.1694 19.755 35.0484 18.365 40.4081 18.071C39.255 19.872 37.995 23.174 37.995 29C37.995 32.12 37.1653 34.522 35.5303 36.14C32.9091 38.731 28.6509 38.974 25.5366 38.724C25.0191 38.679 24.57 39.095 24.5306 39.646C24.4912 40.196 24.8784 40.676 25.3941 40.718C26.0175 40.769 26.6831 40.8 27.375 40.8C30.5456 40.8 34.2441 40.137 36.8044 37.606C38.8388 35.595 39.87 32.7 39.87 29.001C39.87 19.902 43.0856 17.905 43.1016 17.896C43.4916 17.687 43.6959 17.219 43.5938 16.767Z" fill="white"/>
</g>
<defs>
<clipPath id="clip0_95_18">
<rect width="30" height="32" fill="white" transform="translate(15.75 14)"/>
</clipPath>
</defs>
</svg>
