<svg>
<symbol id="logo" width="34" height="38" viewBox="0 0 34 38" fill="none" xmlns="http://www.w3.org/2000/svg">
<g clip-path="url(#clip0_37030_424)">
<path d="M6.07 20.72V18.46C12.7536 17.5423 19.4937 17.0979 26.24 17.13C26.24 17.73 26.24 18.34 26.18 18.95C28.0976 18.099 30.1128 17.4877 32.18 17.13C30.8625 13.722 28.4618 10.8412 25.3471 8.93087C22.2325 7.02052 18.5764 6.1864 14.9414 6.55683C11.3064 6.92727 7.89379 8.48172 5.22852 10.9811C2.56325 13.4804 0.792971 16.7863 0.190002 20.39L6.07 20.72Z" fill="#FDC305"/>
<path d="M27.24 24.23C26.08 25.51 25.85 25.43 25.85 27.68C25.85 28.59 25.85 32.58 25.85 36.86C28.1425 35.346 30.0245 33.2879 31.328 30.8694C32.6315 28.4509 33.3158 25.7474 33.32 23C33.3068 21.9591 33.1997 20.9216 33 19.9C30.9282 21.1295 28.9968 22.5814 27.24 24.23Z" fill="#FDC305"/>
<path d="M6.36 25.72C6.36 25.72 2.57 24.28 1.17 23.89C0.787067 23.7693 0.396097 23.6757 0 23.61C0.108395 26.496 0.965588 29.3041 2.48739 31.7586C4.00919 34.2131 6.14326 36.2296 8.68 37.61L6.36 25.72Z" fill="#FDC305"/>
<path d="M26.29 17.12C26.3307 11.5986 25.862 6.08528 24.89 0.65C24.89 0.65 24.75 -0.64 24 0.41C23.4109 1.65814 23.0067 2.98539 22.8 4.35C18.5418 4.07577 14.2675 4.18957 10.03 4.69C9.24 2 7.85 0.75 7.18 1C6.51 1.25 6.46 4.31 6.46 4.31L6.13 18.41C12.8113 17.506 19.548 17.0749 26.29 17.12Z" fill="#F06351"/>
<path d="M12.41 14C12.41 13.91 13.41 14.68 13.82 14.92C14.23 15.16 14.43 15.34 14.43 15.51C14.43 15.68 14.16 15.85 13.8 15.85C13.44 15.85 12.89 15.73 12.8 15.58H13.74H14.03C13.4207 15.1294 12.8757 14.5978 12.41 14Z" fill="black"/>
<path d="M19.89 14.11L18.8 15.44C18.8 15.5 18.63 15.79 18.98 15.74C19.3942 15.6783 19.8023 15.5812 20.2 15.45C20.31 15.45 20.27 15.26 20.09 15.28C19.91 15.3 19.4 15.33 19.09 15.39L19.93 14.13C19.93 14.13 20 14 19.89 14.11Z" fill="black"/>
<path d="M16.75 20.2C17.2135 19.9958 17.5967 19.6443 17.84 19.2C18.12 18.55 17.84 18.29 17.4 18.2C16.7979 18.0902 16.1765 18.2116 15.66 18.54C15.27 18.9 15.32 19.26 15.61 19.54C15.9613 19.8062 16.3442 20.0279 16.75 20.2Z" fill="black"/>
<path d="M16.35 21.45C16.2379 21.6785 16.0816 21.8825 15.89 22.05C15.6052 22.2791 15.2551 22.4122 14.89 22.43C14.3638 22.472 13.8406 22.3189 13.42 22C13.2222 21.8808 13.0436 21.7324 12.89 21.56C12.7895 21.4491 12.6669 21.3605 12.53 21.3C12.53 21.3 13.28 25.4 15.1 26.05C16.92 26.7 17.24 25.3 17.3 24.92C17.3601 23.7851 17.0742 22.6588 16.48 21.69C16.46 21.38 16.45 21.58 16.35 21.45Z" fill="#F06351"/>
<path d="M14.71 22.59C14.2453 22.5247 13.7989 22.3651 13.3982 22.1209C12.9975 21.8767 12.651 21.5531 12.38 21.17C12.3667 21.157 12.3561 21.1414 12.3489 21.1242C12.3417 21.1071 12.338 21.0886 12.338 21.07C12.338 21.0514 12.3417 21.0329 12.3489 21.0158C12.3561 20.9986 12.3667 20.983 12.38 20.97C12.393 20.9567 12.4086 20.9461 12.4258 20.9389C12.4429 20.9317 12.4614 20.928 12.48 20.928C12.4986 20.928 12.5171 20.9317 12.5342 20.9389C12.5514 20.9461 12.567 20.9567 12.58 20.97C13.0848 21.6642 13.843 22.1313 14.69 22.27C15.0217 22.245 15.3426 22.1413 15.6261 21.9674C15.9096 21.7934 16.1475 21.5544 16.32 21.27L16.46 21.08L16.56 21.29C16.56 21.29 16.93 22.05 17.56 22.09C18.19 22.13 18.61 21.68 19.17 20.81C19.183 20.7967 19.1986 20.7861 19.2158 20.7789C19.2329 20.7717 19.2514 20.768 19.27 20.768C19.2886 20.768 19.3071 20.7717 19.3242 20.7789C19.3414 20.7861 19.357 20.7967 19.37 20.81C19.4023 20.8306 19.4255 20.8629 19.4348 20.9C19.4441 20.9372 19.4388 20.9766 19.42 21.01C18.78 22.01 18.15 22.45 17.54 22.41C17.308 22.3763 17.0867 22.2904 16.8927 22.1587C16.6987 22.0271 16.5371 21.8531 16.42 21.65C16.2233 21.9245 15.9676 22.1514 15.6717 22.3141C15.3758 22.4767 15.0472 22.571 14.71 22.59Z" fill="black"/>
<path d="M26.24 18.92C24.4445 20.5437 22.7512 22.277 21.17 24.11C19.5987 25.9361 17.8238 27.5768 15.88 29C15.66 28.47 14.26 27.49 14.26 27.49C14.26 27.49 11.13 25.35 9.08001 23.67C7.97415 22.7373 6.92871 21.7353 5.95001 20.67L3.95001 20.56C6.84019 24.7655 11.0702 27.8676 15.95 29.36C16.81 29.22 19.22 27.5 21.02 26.1C23.1389 24.2819 25.124 22.3134 26.96 20.21C27.4625 19.621 27.8493 18.9425 28.1 18.21C27 18.6 26.24 18.92 26.24 18.92Z" fill="#F06351"/>
</g>
<defs>
<clipPath id="clip0_37030_424">
<rect width="33.32" height="37.61" fill="white"/>
</clipPath>
</defs>
</symbol>
<symbol id="logo-words" width="128" height="24" viewBox="0 0 128 24" fill="none" xmlns="http://www.w3.org/2000/svg">
<g clip-path="url(#clip0_135_3260)">
<path d="M1.60253 22.0513C0.468358 20.3682 -0.0946573 18.3503 3.016e-05 16.3077V7.79487C-0.137317 5.73031 0.390444 3.67661 1.50238 1.94872C2.6041 0.615385 4.30676 0 6.81067 0C9.31458 0 10.9171 0.615385 11.9187 1.74359C13.006 3.17255 13.5409 4.96181 13.421 6.76923V8.82051H8.51333V6.46154C8.55297 5.76385 8.45065 5.06533 8.21286 4.41026C8.08576 4.14583 7.88431 3.9264 7.63443 3.78018C7.38455 3.63395 7.09766 3.56763 6.81067 3.58974C6.10958 3.58974 5.60879 3.79487 5.40848 4.30769C5.18191 5.03643 5.08025 5.79984 5.10801 6.5641V17.5385C5.05512 18.2799 5.19327 19.0227 5.50864 19.6923C5.70895 20.2051 6.20973 20.4103 6.91083 20.4103C7.61192 20.4103 8.01255 20.2051 8.21286 19.6923C8.44058 18.9992 8.54242 18.2692 8.51333 17.5385V15.0769H13.421V17.1282C13.5229 18.9651 12.9911 20.7803 11.9187 22.2564C10.9171 23.4872 9.21443 24.1026 6.81067 24.1026C4.40692 24 2.6041 23.3846 1.60253 22.0513Z" fill="#111111"/>
<path d="M19.3302 0.307617H25.0391L29.2457 23.6922H24.6385L23.8372 18.7692H20.5321L19.7308 23.6922H15.0235L19.3302 0.307617ZM23.4366 15.6922L22.2347 6.56403L21.0329 15.6922H23.4366Z" fill="#111111"/>
<path d="M32.7512 4.20505H29.3459V0.307617H41.2645V4.10249H37.8592V23.6922H32.7512V4.20505Z" fill="#111111"/>
<path d="M50.3787 0.307617H59.1925V2.76916H53.4836V10.4615H58.0908V12.8204H53.4836V21.4358H59.1925V23.7948H50.2786V0.307617H50.3787Z" fill="#111111"/>
<path d="M61.7966 0.307617H64L70.5102 15.7948V0.307617H73.1142V23.6922H71.1111L64.5008 7.69223V23.6922H61.7966V0.307617Z" fill="#111111"/>
<path d="M76.1189 0.307617H84.9327V2.76916H79.2238V10.4615H83.831V12.8204H79.2238V21.4358H84.9327V23.7948H76.1189V0.307617Z" fill="#111111"/>
<path d="M87.5368 0.3076H92.144C93.9564 0.179397 95.7575 0.685711 97.2519 1.7435C98.3537 2.66657 98.8544 4.3076 98.8544 6.46145C98.8544 9.4358 97.953 11.282 96.0501 11.8973L99.2551 23.5897H96.1502L93.1455 12.6153H90.6416V23.5897H87.4366V0.3076H87.5368ZM91.9437 10.3589C92.9762 10.446 94.0053 10.1553 94.8482 9.53837C95.4491 9.02555 95.7496 7.99991 95.7496 6.46145C95.7774 5.69719 95.6757 4.93378 95.4491 4.20504C95.2237 3.68211 94.8366 3.24964 94.3474 2.97427C93.6576 2.65236 92.9003 2.51137 92.144 2.56401H90.7418V10.2563H91.9437V10.3589Z" fill="#111111"/>
<path d="M102.861 21.9487C101.82 20.1554 101.331 18.0821 101.459 15.9999V8.20507C101.434 6.71875 101.602 5.23567 101.959 3.79481C102.294 2.71811 102.962 1.78218 103.862 1.12815C104.981 0.450275 106.271 0.128917 107.568 0.20507C109.671 0.20507 111.174 0.71789 112.075 1.8461C113.112 3.33582 113.608 5.14977 113.477 6.9743V7.79481H110.473V7.07687C110.477 6.21789 110.41 5.36008 110.272 4.51276C110.188 3.97732 109.9 3.49792 109.471 3.17943C108.908 2.80104 108.24 2.62099 107.568 2.66661C106.85 2.61949 106.139 2.83785 105.565 3.28199C105.329 3.48529 105.137 3.73569 104.999 4.01787C104.861 4.30004 104.781 4.60805 104.764 4.92302C104.632 5.83993 104.565 6.76543 104.563 7.69225V16.4102C104.49 17.7384 104.694 19.0674 105.164 20.3076C105.565 21.1281 106.366 21.4358 107.568 21.4358C108.043 21.4964 108.524 21.4119 108.952 21.1929C109.38 20.9739 109.734 20.6302 109.972 20.2051C110.501 18.9081 110.741 17.5064 110.673 16.1025V14.4615H107.768V12.1025H113.577V23.6923H111.574L111.274 21.0256C111.011 21.9193 110.465 22.6975 109.72 23.2364C108.976 23.7753 108.078 24.0441 107.167 23.9999C106.34 24.0498 105.513 23.8885 104.761 23.5304C104.01 23.1724 103.357 22.6289 102.861 21.9487Z" fill="#111111"/>
<path d="M119.987 15.4871L115.08 0.410156H118.084L121.59 11.6922L124.995 0.410156H128L123.092 15.4871V23.6922H120.088V15.4871H119.987Z" fill="#111111"/>
</g>
<defs>
<clipPath id="clip0_135_3260">
<rect width="128" height="24" fill="white"/>
</clipPath>
</defs>
</symbol>
<symbol id="hamburger" width="24" height="18" viewBox="0 0 24 18" fill="none" xmlns="http://www.w3.org/2000/svg">
<line y1="1.25" x2="24" y2="1.25" stroke="black" stroke-width="1.5"/>
<line y1="9.25" x2="24" y2="9.25" stroke="black" stroke-width="1.5"/>
<line y1="17.25" x2="24" y2="17.25" stroke="black" stroke-width="1.5"/>
</symbol>
<symbol id="cat-silouette-1" width="36" height="50" viewBox="0 0 36 50" fill="none" xmlns="http://www.w3.org/2000/svg">
<path d="M28.2034 0H28.008C27.6778 0.187081 27.415 0.473924 27.2571 0.819588C26.968 1.37738 26.7453 1.96735 26.5937 2.57732C26.5612 2.76073 26.4688 2.92811 26.331 3.05315C26.1932 3.17818 26.0179 3.25377 25.8326 3.26804C25.2658 3.36597 24.7288 3.59243 24.2626 3.93012C23.7965 4.26781 23.4135 4.7078 23.1429 5.21649C22.7708 5.87697 22.4526 6.5665 22.1914 7.27835C21.4611 9.17526 20.9006 11.134 20.2114 13.0464C19.8874 13.9175 19.872 13.9175 18.8949 13.9175C17.7274 13.9175 17.8097 13.7371 17.7943 15.0258C17.7943 15.433 17.9177 15.6392 18.3497 15.6186C18.4834 15.6186 18.684 15.5515 18.7354 15.7268C18.7869 15.9021 18.612 15.9794 18.5091 16.0825C17.8994 16.7029 17.1276 17.1388 16.2823 17.3402C15.3051 17.6031 14.3074 17.8093 13.356 18.1289C10.9131 18.9485 8.65543 20.0928 6.89657 22.0309C5.86814 23.2347 5.04455 24.6001 4.45886 26.0722C2.57143 30.5258 1.656 35.2165 0.946286 39.9536C0.612 42.1753 0.375429 44.4072 0.195429 46.6546C0.102857 47.7577 0 48.8763 0 50H17.1411C17.1696 49.7731 17.1283 49.5429 17.0229 49.3402C16.858 48.9289 16.5901 48.5672 16.2451 48.29C15.9 48.0128 15.4895 47.8295 15.0531 47.7577C14.6931 47.6753 14.652 47.567 14.8731 47.2835C15.2338 46.801 15.5103 46.2607 15.6909 45.6856C16.5291 43.2062 16.8531 40.6186 17.2594 38.0567C17.4889 36.0999 18.0894 34.2051 19.0286 32.4742C19.7611 31.2002 20.7382 30.0842 21.9034 29.1907C22.3303 28.866 22.3457 28.866 22.4177 29.4175C22.4691 29.7835 22.4794 30.1598 22.5051 30.5309C22.6595 32.9662 22.6285 35.4097 22.4126 37.8402C22.2184 39.7242 22.1926 41.6217 22.3354 43.5103C22.5399 45.7029 22.9304 47.8739 23.5029 50H30.3429C30.2536 49.442 29.9973 48.9243 29.6078 48.5156C29.2184 48.1069 28.7143 47.8264 28.1623 47.7113C27.5177 47.6087 26.8587 47.6438 26.2286 47.8144C25.92 47.8866 25.7914 47.8144 25.7657 47.4794C25.5529 44.7505 25.7261 42.0051 26.28 39.3247C26.966 36.2304 27.4912 33.1025 27.8537 29.9536C27.9887 28.6819 28.3881 27.4528 29.0263 26.3454C29.6383 25.2526 30.1731 24.1186 30.7749 23.0206C31.0138 22.6214 31.1575 22.1723 31.195 21.7083C31.2325 21.2443 31.1626 20.7779 30.9909 20.3454C30.852 19.9794 30.7183 19.6082 30.5486 19.2577C30.0343 18.2526 29.52 17.2577 29.0469 16.2423C28.7949 15.7268 28.8514 15.6649 29.412 15.6495C30.2503 15.6495 30.2503 15.6495 30.2657 14.8041C30.2657 14.6907 30.2657 14.5773 30.2657 14.4639C30.2657 14.1082 30.132 13.9124 29.7514 13.9485C29.4943 13.9485 29.2371 13.9485 28.9697 13.9485C28.6149 13.9485 28.512 13.799 28.5994 13.433C28.7729 12.838 29.1142 12.306 29.5823 11.9009C30.0503 11.4958 30.6252 11.2349 31.2377 11.1495C32.3772 11.0505 33.5251 11.1252 34.6423 11.3711C34.7712 11.4118 34.9109 11.4001 35.0312 11.3383C35.1515 11.2766 35.2427 11.1699 35.2851 11.0412C35.4909 10.5258 35.7171 10.0103 35.9486 9.49484C36.001 9.40339 36.0242 9.29801 36.015 9.19293C36.0058 9.08785 35.9647 8.98812 35.8971 8.90722C34.2514 6.81443 32.4669 4.86082 30.0343 3.60825C29.9168 3.55754 29.8138 3.47814 29.7347 3.3773C29.6557 3.27646 29.6031 3.15738 29.5817 3.03093C29.444 2.29408 29.225 1.57487 28.9286 0.886598C28.7895 0.519904 28.5349 0.20865 28.2034 0V0Z" fill="black"/>
</symbol>
<symbol id="cat-silouette-2" width="67" height="28" viewBox="0 0 67 28" fill="none" xmlns="http://www.w3.org/2000/svg">
<path d="M61.55 2.89997C62.1272 1.98151 62.8944 1.19727 63.8 0.599973C64.3 0.249973 64.6 0.249973 64.9 0.899973C65.3 1.84997 65.65 2.84997 65.35 3.89997C65.2954 4.07806 65.2851 4.26677 65.3199 4.44974C65.3548 4.63272 65.4338 4.80442 65.55 4.94997C65.85 5.34997 66.1 5.74997 66.35 6.09997C66.6902 6.53186 66.9109 7.04563 66.9899 7.58974C67.0689 8.13385 67.0034 8.68917 66.8 9.19997C66.6164 9.69588 66.5817 10.2346 66.7 10.75C66.7999 11.245 66.7999 11.755 66.7 12.25C66.6596 12.6207 66.5095 12.9709 66.2691 13.2559C66.0286 13.5409 65.7086 13.7478 65.35 13.85C64.7104 13.9717 64.1396 14.3284 63.75 14.85C63.7028 14.9268 63.6365 14.9901 63.5577 15.0339C63.4789 15.0777 63.3901 15.1005 63.3 15.1C62.7 15.2 61.2 13.85 61.2 13.25V12.95C61.25 11.15 61.15 11 59.5 10.25C59.1546 10.1282 58.8452 9.92192 58.6 9.64997C58.3 9.24997 57.9 9.29997 57.45 9.44997C57 9.59997 56.75 9.89997 56.8 10.4C56.9508 11.6104 57.0009 12.8313 56.95 14.05C56.9533 14.1891 56.9875 14.3257 57.05 14.45C58.6 16.7 59.2 19.35 59.95 21.9C60.55 23.85 61.65 24.9 63.65 25.05C63.97 25.0755 64.2876 25.1257 64.6 25.2C65.0109 25.266 65.3926 25.4538 65.6956 25.739C65.9987 26.0242 66.2092 26.3938 66.3 26.8C66.65 27.85 66.45 28.1 65.4 28.1H62.15C61.7292 28.1213 61.3167 27.9778 61 27.7C60.4939 27.2729 59.9191 26.9348 59.3 26.7C58.6155 26.4473 58.0231 25.9943 57.6 25.4C57.0143 24.5817 56.3439 23.8275 55.6 23.15C54.2 21.7 52.7 20.3 51.4 18.8C50.4103 17.7779 49.8395 16.4221 49.8 15C49.8 14.55 49.7 14.35 49.2 14.55C49.0503 14.645 48.8773 14.6969 48.7 14.7C47.3 14.7 46.6 15.55 46.1 16.8C45.65 17.85 45.05 18.85 44.5 19.9C44.1881 20.5572 44.0178 21.2727 44 22C44 23.2 44.3 23.6 45.4 24C46.1 24.25 46.75 24.5 47.1 25.2C47.5 26 47.4 26.2 46.55 26.25H43.15C42.954 26.2694 42.7568 26.2267 42.5864 26.1281C42.4159 26.0294 42.2807 25.8796 42.2 25.7L41.3 24.2C41.0347 23.8086 40.8648 23.3605 40.8041 22.8916C40.7433 22.4227 40.7932 21.9461 40.95 21.5C41.1664 20.6317 41.1835 19.7258 41 18.85C40.8739 18.24 40.8848 17.6097 41.0318 17.0045C41.1788 16.3993 41.4582 15.8342 41.85 15.35C42.15 15 42.15 14.85 41.65 14.75C39.6054 14.3157 37.6233 13.627 35.75 12.7C35.7367 12.7 35.724 12.6947 35.7146 12.6853C35.7052 12.676 35.7 12.6632 35.7 12.65C34.1 12.05 33.8 12.15 33.35 13.8C32.95 15.2 32.55 16.6 32.25 18.05C31.9 19.65 32.3 21.15 32.8 22.65C33 23.25 33.6 23.2 34.05 23.35C35.05 23.65 35.9 24.05 36.3 25.1C36.65 25.9 36.6 26 35.75 26C34.9 26 34.05 25.95 33.15 26C32.3905 26.0137 31.6493 25.7667 31.05 25.3C28.65 23.7 27.95 21.25 27.75 18.6C27.65 16.95 26.75 15.65 25.7 14.4C25.5 14.15 25.3 14.05 25 14.25C23.9267 14.8418 22.8062 15.3435 21.65 15.75C19.2371 16.602 17.1198 18.1292 15.55 20.15C14.9638 20.8875 14.5842 21.7675 14.45 22.7C14.3 23.6 14.55 24 15.45 24.25C16.35 24.5 16.8 25 16.9 25.95C16.95 26.35 16.8 26.55 16.4 26.55H12.35C12.2174 26.5406 12.0891 26.4993 11.9759 26.4297C11.8628 26.36 11.7681 26.2641 11.7 26.15C11.0719 25.3724 10.7358 24.3995 10.75 23.4C10.7237 21.6724 10.8745 19.9468 11.2 18.25C11.2667 17.7418 11.4564 17.2576 11.7527 16.8394C12.0489 16.4212 12.4428 16.0815 12.9 15.85C15.85 14.45 17.4 11.8 18.8 9.04997C19.1 8.49997 18.85 8.39997 18.35 8.44997C16.9506 8.64424 15.6248 9.19523 14.5 10.05C13.0271 11.1244 11.6396 12.3113 10.35 13.6C8.9748 14.9968 7.15133 15.8643 5.19998 16.05C1.54998 16.25 -0.150021 14.2 -2.12286e-05 10.9C0.03351 9.77477 0.457802 8.69636 1.19998 7.84997C1.45799 7.51547 1.80985 7.26546 2.21061 7.13188C2.61138 6.99829 3.04287 6.98718 3.44998 7.09997C4.19998 7.29997 4.39998 7.69997 4.09998 8.44997C3.94998 8.74997 3.74998 8.99997 3.59998 9.29997C3.38428 9.60645 3.21574 9.94353 3.09998 10.3C2.54998 11.8 3.29998 12.85 4.84998 13C6.49998 13.15 7.84998 12.45 9.09998 11.45C10.6059 10.2441 11.9503 8.84929 13.1 7.29997C13.9596 6.16868 15.042 5.22562 16.2804 4.52904C17.5188 3.83245 18.8868 3.39714 20.3 3.24997C21.45 3.09997 22.45 2.59997 23.55 2.29997C25.6072 1.67278 27.7495 1.36915 29.9 1.39997C30.896 1.44145 31.8883 1.25327 32.8 0.849973C35.25 -0.150027 37.8 -0.150028 40.35 0.349973C42.35 0.749973 44.35 1.24997 46.3 1.74997C47.4605 1.96621 48.6537 1.93212 49.8 1.64997C51.9943 1.09374 54.2389 0.758734 56.5 0.649973C57.9812 0.577906 59.4576 0.869742 60.8 1.49997C61.8 1.94997 61.8 1.94997 61.55 2.89997Z" fill="black"/>
</symbol>
<symbol id="arrow" width="24" height="12" viewBox="0 0 24 12" fill="none" xmlns="http://www.w3.org/2000/svg">
<line y1="6" x2="18" y2="6" stroke="black" stroke-width="2"/>
<path d="M24 6L17.25 11.1962L17.25 0.803848L24 6Z" fill="black"/>
</symbol>
<symbol id="html-academy" width="27" height="34" viewBox="0 0 27 34" fill="none" xmlns="http://www.w3.org/2000/svg">
<path d="M13.6426 0.0157537L13.5 0L0 1.40733V26.0129L13.5 34L27 26.0129V1.40733L13.6426 0.0157537ZM25.2344 25.0151L13.5 31.9573L1.76561 25.0151V14.9293L13.4507 21.8451L13.4701 23.0984L5.45351 18.3548L5.44295 19.5801L13.4894 24.3885L13.5088 25.675L5.46408 20.9174L5.45351 22.1427L13.5 26.9511L21.6239 22.1182V20.8929V16.909L25.2432 14.7595L25.2344 25.0151ZM25.2344 13.4519L22.0147 15.3319L20.5325 16.2071L13.4666 12.0201L13.456 13.2454L19.4957 16.818L19.4429 16.8495L19.3126 16.9247L18.4536 17.4166L13.4666 14.4689L13.456 15.6942L17.3921 18.0222L16.4591 18.6314L16.438 18.6436L13.4666 16.902L13.456 18.1273L15.4029 19.2615L13.4155 20.4483L1.7973 13.5762L13.4349 6.61831L25.2344 13.4519ZM25.2344 12.2266L13.4401 5.31075L1.76561 12.2196V2.9897L13.5 1.76442L25.2344 2.9897V12.2266Z" fill="#666666"/>
</symbol>
<symbol id="icon-leaf" width="61" height="60" viewBox="0 0 61 60" fill="none" xmlns="http://www.w3.org/2000/svg">
<rect x="0.75" width="60" height="60" fill="#68B738"/>
<g clip-path="url(#clip0_95_18)">
<path d="M43.5938 16.767C43.4934 16.317 43.1147 16 42.6825 16C42.6806 16 42.6788 16 42.6769 16C37.7391 16.033 25.7316 16.916 20.8837 24.38C18.3656 28.258 18.1491 33.293 20.2397 39.345C20.2556 39.392 20.2884 39.424 20.31 39.467C19.5628 41.44 19.2731 42.753 19.2656 42.79C19.1569 43.33 19.4803 43.862 19.9866 43.978C20.0522 43.993 20.1178 44 20.1834 44C20.6156 44 21.0047 43.679 21.0994 43.21C21.1191 43.108 23.5078 32.837 31.9528 26.832C32.3841 26.526 32.5003 25.905 32.2125 25.445C31.9247 24.985 31.3434 24.86 30.9122 25.168C26.1234 28.573 23.1741 33.176 21.4397 36.824C20.1984 32.246 20.5237 28.447 22.4259 25.519C26.1694 19.755 35.0484 18.365 40.4081 18.071C39.255 19.872 37.995 23.174 37.995 29C37.995 32.12 37.1653 34.522 35.5303 36.14C32.9091 38.731 28.6509 38.974 25.5366 38.724C25.0191 38.679 24.57 39.095 24.5306 39.646C24.4912 40.196 24.8784 40.676 25.3941 40.718C26.0175 40.769 26.6831 40.8 27.375 40.8C30.5456 40.8 34.2441 40.137 36.8044 37.606C38.8388 35.595 39.87 32.7 39.87 29.001C39.87 19.902 43.0856 17.905 43.1016 17.896C43.4916 17.687 43.6959 17.219 43.5938 16.767Z" fill="white"/>
</g>
<defs>
<clipPath id="clip0_95_18">
<rect width="30" height="32" fill="white" transform="translate(15.75 14)"/>
</clipPath>
</defs>
</symbol>
<symbol id="icon-fork-knife" width="61" height="60" viewBox="0 0 61 60" fill="none" xmlns="http://www.w3.org/2000/svg">
<rect x="0.75" width="60" height="60" fill="#68B738"/>
<path fill-rule="evenodd" clip-rule="evenodd" d="M37.3673 15.0761C37.741 14.9214 38.1711 15.0069 38.4571 15.2929C39.3656 16.2014 40.5538 18.1706 41.5159 21.2108C42.4873 24.2804 43.25 28.5081 43.25 34C43.25 34.5523 42.8023 35 42.25 35H38.75V44C38.75 44.5523 38.3023 45 37.75 45C37.1977 45 36.75 44.5523 36.75 44V16C36.75 15.5956 36.9936 15.2309 37.3673 15.0761ZM38.75 33H41.2412C41.1553 28.1836 40.4551 24.4875 39.6091 21.8142C39.3307 20.9346 39.0385 20.1715 38.75 19.519V33Z" fill="white"/>
<path fill-rule="evenodd" clip-rule="evenodd" d="M24.75 15C25.3023 15 25.75 15.4477 25.75 16V44C25.75 44.5523 25.3023 45 24.75 45C24.1977 45 23.75 44.5523 23.75 44V16C23.75 15.4477 24.1977 15 24.75 15Z" fill="white"/>
<path fill-rule="evenodd" clip-rule="evenodd" d="M20.25 15C20.8023 15 21.25 15.4477 21.25 16V21.5C21.25 22.0569 21.442 22.8152 21.9509 23.4166C22.43 23.9828 23.2645 24.5 24.7499 24.5C25.3022 24.5 25.7499 24.9477 25.7499 25.5C25.7499 26.0523 25.3022 26.5 24.7499 26.5C22.7355 26.5 21.32 25.7672 20.4241 24.7084C19.558 23.6848 19.25 22.4431 19.25 21.5V16C19.25 15.4477 19.6977 15 20.25 15Z" fill="white"/>
<path fill-rule="evenodd" clip-rule="evenodd" d="M29.25 15C28.6977 15 28.25 15.4477 28.25 16V21.5C28.25 22.0569 28.058 22.8152 27.5491 23.4166C27.07 23.9828 26.2354 24.5 24.7499 24.5C24.1976 24.5 23.7501 24.9477 23.7501 25.5C23.7501 26.0523 24.1976 26.5 24.7499 26.5C26.7644 26.5 28.18 25.7672 29.0759 24.7084C29.942 23.6848 30.25 22.4431 30.25 21.5V16C30.25 15.4477 29.8023 15 29.25 15Z" fill="white"/>
</symbol>
<symbol id="icon-alarm" width="61" height="60" viewBox="0 0 61 60" fill="none" xmlns="http://www.w3.org/2000/svg">
<rect x="0.75" width="60" height="60" fill="#68B738"/>
<ellipse cx="35.9542" cy="24.3299" rx="1.0873" ry="1.08512" fill="white"/>
<ellipse cx="25.0811" cy="24.3299" rx="1.08731" ry="1.08512" fill="white"/>
<ellipse cx="25.0811" cy="37.3512" rx="1.08731" ry="1.08512" fill="white"/>
<ellipse cx="30.5177" cy="39.5215" rx="1.0873" ry="1.08512" fill="white"/>
<ellipse cx="21.8192" cy="30.7748" rx="1.08731" ry="1.08512" fill="white"/>
<ellipse cx="39.2161" cy="30.7748" rx="1.0873" ry="1.08512" fill="white"/>
<ellipse cx="35.9542" cy="37.3512" rx="1.0873" ry="1.08512" fill="white"/>
<mask id="path-9-inside-1_95_39" fill="white">
<path fill-rule="evenodd" clip-rule="evenodd" d="M35.6715 42.0581C36.0798 41.8622 36.5726 41.9298 36.8885 42.2542L38.7144 44.1292C38.9819 44.4039 39.4234 44.4039 39.691 44.1292C39.9487 43.8645 39.9487 43.4427 39.691 43.1781L38.3343 41.7849C37.9084 41.3475 37.9728 40.6356 38.432 40.2333C41.0738 37.9195 42.75 34.4688 42.75 30.6145C42.75 23.6477 37.2735 18 30.5178 18C23.7622 18 18.2856 23.6477 18.2856 30.6145C18.2856 34.4288 19.9273 37.8477 22.5217 40.1608C22.9744 40.5644 23.0349 41.2708 22.6117 41.7054L21.1776 43.1781C20.9198 43.4427 20.9198 43.8645 21.1776 44.1291C21.4451 44.4039 21.8866 44.4039 22.1542 44.1292L24.0338 42.199C24.3525 41.8718 24.8504 41.8061 25.2602 42.0076C26.853 42.7907 28.6358 43.229 30.5178 43.229C32.359 43.229 34.1053 42.8095 35.6715 42.0581ZM30.5178 41.8274C36.5228 41.8274 41.3909 36.8072 41.3909 30.6145C41.3909 24.4218 36.5228 19.4016 30.5178 19.4016C24.5128 19.4016 19.6448 24.4218 19.6448 30.6145C19.6448 36.8072 24.5128 41.8274 30.5178 41.8274ZM29.7583 30.298V26.5001V22.9409C29.7583 22.5094 30.1081 22.1596 30.5395 22.1596C30.971 22.1596 31.3208 22.5094 31.3208 22.9409V26.5001V30.298V30.8406V31.1226C31.3208 31.5661 30.9613 31.9257 30.5177 31.9257C30.0983 31.9257 29.7583 31.5857 29.7583 31.1663V30.8406V30.298Z"/>
</mask>
<path fill-rule="evenodd" clip-rule="evenodd" d="M35.6715 42.0581C36.0798 41.8622 36.5726 41.9298 36.8885 42.2542L38.7144 44.1292C38.9819 44.4039 39.4234 44.4039 39.691 44.1292C39.9487 43.8645 39.9487 43.4427 39.691 43.1781L38.3343 41.7849C37.9084 41.3475 37.9728 40.6356 38.432 40.2333C41.0738 37.9195 42.75 34.4688 42.75 30.6145C42.75 23.6477 37.2735 18 30.5178 18C23.7622 18 18.2856 23.6477 18.2856 30.6145C18.2856 34.4288 19.9273 37.8477 22.5217 40.1608C22.9744 40.5644 23.0349 41.2708 22.6117 41.7054L21.1776 43.1781C20.9198 43.4427 20.9198 43.8645 21.1776 44.1291C21.4451 44.4039 21.8866 44.4039 22.1542 44.1292L24.0338 42.199C24.3525 41.8718 24.8504 41.8061 25.2602 42.0076C26.853 42.7907 28.6358 43.229 30.5178 43.229C32.359 43.229 34.1053 42.8095 35.6715 42.0581ZM30.5178 41.8274C36.5228 41.8274 41.3909 36.8072 41.3909 30.6145C41.3909 24.4218 36.5228 19.4016 30.5178 19.4016C24.5128 19.4016 19.6448 24.4218 19.6448 30.6145C19.6448 36.8072 24.5128 41.8274 30.5178 41.8274ZM29.7583 30.298V26.5001V22.9409C29.7583 22.5094 30.1081 22.1596 30.5395 22.1596C30.971 22.1596 31.3208 22.5094 31.3208 22.9409V26.5001V30.298V30.8406V31.1226C31.3208 31.5661 30.9613 31.9257 30.5177 31.9257C30.0983 31.9257 29.7583 31.5857 29.7583 31.1663V30.8406V30.298Z" fill="white"/>

<rect x="29.75" y="19" width="4" height="1.5" transform="rotate(-90 29.75 19)" fill="white"/>
<rect x="22.75" y="15" width="15.5" height="1.5" rx="0.75" fill="white"/>
</symbol>
<symbol id="icon-water" width="61" height="60" viewBox="0 0 61 60" fill="none" xmlns="http://www.w3.org/2000/svg">
<path d="M0.75 0H60.75V60H0.75V0Z" fill="#68B738"/>
<g clip-path="url(#clip0_95_25)">
<path d="M36.5262 31.4731C34.8202 31.4731 33.4377 32.9515 33.4377 34.7742C33.4377 36.5983 34.8207 38.0761 36.5262 38.0761C38.2318 38.0761 39.6143 36.5978 39.6143 34.7742C39.6143 32.951 38.2313 31.4731 36.5262 31.4731ZM36.5262 36.4864C35.6422 36.4864 34.9253 35.7201 34.9253 34.7751C34.9253 33.8291 35.6422 33.0633 36.5262 33.0633C37.4103 33.0633 38.1276 33.8291 38.1276 34.7751C38.1276 35.7201 37.4103 36.4864 36.5262 36.4864Z" fill="white"/>
<path d="M27.3568 12.9899C25.5964 12.9899 24.1695 14.5147 24.1695 16.397C24.1695 18.2792 25.596 19.8036 27.3568 19.8036C29.1176 19.8036 30.5441 18.2797 30.5441 16.397C30.5436 14.5142 29.1172 12.9899 27.3568 12.9899ZM27.3563 18.4657C26.2874 18.4657 25.421 17.5396 25.421 16.3965C25.421 15.2538 26.2874 14.3272 27.3563 14.3272C28.4257 14.3272 29.2921 15.2538 29.2921 16.3965C29.2921 17.5396 28.4257 18.4657 27.3563 18.4657Z" fill="white"/>
<path d="M23.9769 30.6105C22.6833 30.6105 21.6356 31.7303 21.6356 33.1132C21.6356 34.4956 22.6833 35.616 23.9769 35.616C25.2706 35.616 26.3182 34.4956 26.3182 33.1132C26.3182 31.7308 25.2706 30.6105 23.9769 30.6105ZM23.75 32.5C23.291 32.5 24.9082 33.6039 24.9082 33.1132C24.9082 32.6235 23.291 33.5 23.75 33.5C24.2086 33.5 24.8071 32.6226 24.8071 33.1123C24.8071 33.6029 24.2086 32.5 23.75 32.5Z" fill="white"/>
<path d="M34.2502 22.7627C34.2502 22.7627 37.2902 21.9242 40.4281 24.2565C41.3352 25.0164 42.1935 25.5929 41.5804 26.379C41.2369 26.7195 40.9433 27.0358 39.8644 25.8549C38.8104 25.0949 37.1447 23.9566 34.2502 24.4134C33.1224 24.6498 32.2886 24.9641 30.6945 26.5626C29.1009 28.161 26.7224 29.2877 24.1972 29.0518C21.6719 28.8164 20.3483 27.7939 18.9509 26.5098C18.6568 26.0903 18.6568 25.6447 18.8281 25.3826C18.9994 25.1206 19.6614 24.8585 20.0293 25.2514C20.3972 25.6447 22.1377 27.217 23.8537 27.3216C25.5701 27.4262 27.2866 27.5313 29.5907 25.356C31.8967 23.1821 33.049 23.0247 34.2502 22.7627Z" fill="white"/>
<mask id="path-6-inside-1_95_25" fill="white">
<path d="M44.3957 39.8156V21.1574C44.3957 20.5791 44.0218 20.5074 43.8718 20.5021H43.3662C42.8727 20.5021 42.8297 21.0586 42.8283 21.2407C42.8283 21.2587 42.8283 21.2737 42.8283 21.2916C42.8283 21.2931 42.8283 21.3013 42.8283 21.3013C42.8297 24.9099 42.8374 39.5545 42.8265 39.8412C42.8142 40.1692 42.7531 41.0076 42.0054 41.7284C41.197 42.4234 40.3878 42.3314 40.3878 42.3314C40.3878 42.3314 20.2106 42.3314 19.7325 42.3048C19.3528 42.2394 18.6908 42.095 18.1266 41.2958C17.5629 40.4966 17.6735 39.4484 17.6735 39.4484V21.3149C17.6735 20.4764 16.9993 20.5026 16.9993 20.5026H16.692C16.156 20.5026 16.1066 21.0906 16.1039 21.279C16.1039 24.7408 16.1039 38.6468 16.1039 39.816C16.1039 41.1529 16.5575 42.2137 17.6518 43.1529C18.7456 44.0916 20.0266 44.0093 20.0266 44.0093C20.0266 44.0093 39.7502 44.0093 40.6084 44.0069C41.4667 44.0044 42.594 43.5903 43.5243 42.4515C44.4537 41.3128 44.3957 39.8156 44.3957 39.8156Z"/>
</mask>
<path d="M44.3957 39.8156V21.1574C44.3957 20.5791 44.0218 20.5074 43.8718 20.5021H43.3662C42.8727 20.5021 42.8297 21.0586 42.8283 21.2407C42.8283 21.2587 42.8283 21.2737 42.8283 21.2916C42.8283 21.2931 42.8283 21.3013 42.8283 21.3013C42.8297 24.9099 42.8374 39.5545 42.8265 39.8412C42.8142 40.1692 42.7531 41.0076 42.0054 41.7284C41.197 42.4234 40.3878 42.3314 40.3878 42.3314C40.3878 42.3314 20.2106 42.3314 19.7325 42.3048C19.3528 42.2394 18.6908 42.095 18.1266 41.2958C17.5629 40.4966 17.6735 39.4484 17.6735 39.4484V21.3149C17.6735 20.4764 16.9993 20.5026 16.9993 20.5026H16.692C16.156 20.5026 16.1066 21.0906 16.1039 21.279C16.1039 24.7408 16.1039 38.6468 16.1039 39.816C16.1039 41.1529 16.5575 42.2137 17.6518 43.1529C18.7456 44.0916 20.0266 44.0093 20.0266 44.0093C20.0266 44.0093 39.7502 44.0093 40.6084 44.0069C41.4667 44.0044 42.594 43.5903 43.5243 42.4515C44.4537 41.3128 44.3957 39.8156 44.3957 39.8156Z" fill="white"/>
</g>
<defs>
<clipPath id="clip0_95_25">
<rect width="29" height="31" fill="white" transform="translate(15.75 13)"/>
</clipPath>
</defs>
</symbol>
<symbol id="icon-progress" width="86" height="14" viewBox="0 0 86 14" fill="none" xmlns="http://www.w3.org/2000/svg">
<rect x="0.5" y="0.5" width="84.5769" height="13" rx="5.5" fill="white" stroke="#CDCDCD"/>
<rect x="6.11284" y="4" width="35.657" height="6" rx="3" fill="#68B738"/>
</symbol>
<symbol id="icon-vk" width="27" height="17" viewBox="0 0 27 17" fill="none" xmlns="http://www.w3.org/2000/svg">
<path d="M0 2.33876C0 1.48373 0.515103 1.02268 1.54531 0.955621L5.51515 0.980769C5.78158 0.980769 5.95921 1.10651 6.04802 1.35799C6.45655 2.61538 6.91392 3.70094 7.42014 4.61465C7.92637 5.52835 8.58801 6.58038 9.40507 7.77071C9.47611 7.9216 9.59157 7.99704 9.75143 7.99704C9.87576 7.99704 9.97345 7.93836 10.0445 7.82101L10.1244 7.54438L10.1511 3.19379C10.1511 2.89201 10.0756 2.69083 9.92461 2.59024C9.77363 2.48965 9.49388 2.4142 9.08535 2.36391C8.76563 2.31361 8.60577 2.12919 8.60577 1.81065C8.60577 1.74359 8.61465 1.69329 8.63241 1.65976C9.00542 0.57002 10.0711 0.0251479 11.8296 0.0251479L13.3216 0C13.9966 0 14.5561 0.15927 15.0001 0.477811C15.4442 0.796351 15.6662 1.29931 15.6662 1.98669V7.69527C15.7906 7.77909 15.906 7.82101 16.0126 7.82101C16.279 7.82101 16.5099 7.67012 16.7053 7.36834C18.6592 4.78649 19.716 3.05966 19.8759 2.18787C19.8759 2.1711 19.8936 2.12919 19.9291 2.06213C20.0535 1.81065 20.2577 1.5927 20.5419 1.40828C20.8261 1.22387 21.0748 1.09813 21.288 1.03107C21.359 0.997535 21.4389 0.980769 21.5277 0.980769H25.6574L25.9239 1.00592C26.2791 1.00592 26.5544 1.16519 26.7498 1.48373C26.8209 1.58432 26.8697 1.69329 26.8964 1.81065C26.923 1.92801 26.9408 2.04536 26.9496 2.16272C26.9585 2.28008 26.963 2.34714 26.963 2.36391V2.53994C26.8386 3.22732 26.5233 3.9608 26.0171 4.74038C25.5109 5.51997 24.867 6.36243 24.0855 7.26775C23.304 8.17308 22.8155 8.76825 22.6201 9.05326C22.4603 9.25444 22.3803 9.43886 22.3803 9.60651C22.3803 9.74063 22.4514 9.89152 22.5935 10.0592L26.4834 14.6864C26.6965 14.9546 26.8031 15.248 26.8031 15.5666C26.8031 15.9522 26.6432 16.2707 26.3235 16.5222C26.0038 16.7737 25.6219 16.9162 25.1779 16.9497L24.7249 16.9749H20.6752C20.6574 16.9749 20.6219 16.979 20.5686 16.9874C20.5153 16.9958 20.4798 17 20.462 17C20.0712 17 19.7071 16.8407 19.3696 16.5222C19.2453 16.3881 18.4105 15.3989 16.8652 13.5547C16.7764 13.4374 16.652 13.3284 16.4922 13.2278C16.4211 13.4961 16.3279 13.8817 16.2124 14.3846C16.097 14.8876 16.0126 15.248 15.9593 15.466L15.8794 15.8935C15.7018 16.4803 15.3287 16.8323 14.7604 16.9497L14.3874 16.9749H11.7763C10.3021 16.9749 8.83224 16.3378 7.36686 15.0636C5.90148 13.7894 4.58264 12.1423 3.41034 10.122C2.23803 8.10182 1.14566 5.75049 0.133216 3.06805C0.0444054 2.8501 0 2.607 0 2.33876ZM16.0126 8.85207C15.6396 8.85207 15.3021 8.75567 15.0001 8.56287C14.6982 8.37007 14.5472 8.10602 14.5472 7.77071V1.98669C14.5472 1.65138 14.4584 1.41248 14.2808 1.26997C14.1032 1.12747 13.7923 1.05621 13.3483 1.05621L11.8296 1.10651C11.0658 1.10651 10.4886 1.23225 10.0978 1.48373C10.8793 1.8358 11.2701 2.40582 11.2701 3.19379V7.61982C11.2346 8.03895 11.0569 8.38683 10.7372 8.66346C10.4175 8.94009 10.0623 9.0784 9.6715 9.0784C9.13863 9.0784 8.7301 8.83531 8.44591 8.34911C7.06046 6.37081 6.03025 4.4931 5.35529 2.71598L5.1155 2.06213L1.57195 2.03698C1.34104 2.03698 1.21227 2.04956 1.18562 2.0747C1.15898 2.09985 1.14566 2.1711 1.14566 2.28846C1.14566 2.43935 1.16342 2.59862 1.19895 2.76627L1.75845 4.17456C3.25048 7.81262 4.87127 10.6795 6.62085 12.7751C8.37042 14.8708 10.0889 15.9186 11.7763 15.9186H14.4406C14.5472 15.9186 14.6271 15.8893 14.6804 15.8306C14.7337 15.7719 14.7781 15.6588 14.8136 15.4911L14.8669 15.2396L15.3732 13.0266C15.5152 12.7249 15.6396 12.5237 15.7462 12.4231C15.9415 12.2387 16.1725 12.1465 16.4389 12.1465C16.8652 12.1465 17.3003 12.3895 17.7444 12.8757L20.0091 15.5917C20.1512 15.8097 20.3022 15.9186 20.462 15.9186H24.8581C25.391 15.9186 25.6574 15.7929 25.6574 15.5414C25.6574 15.4576 25.6308 15.3738 25.5775 15.2899L21.7142 10.7382C21.4123 10.3861 21.2613 10.0089 21.2613 9.60651C21.2613 9.20414 21.4034 8.81854 21.6876 8.4497C21.9185 8.1144 22.367 7.55695 23.0331 6.77737C23.6992 5.99778 24.2809 5.26849 24.7782 4.5895C25.2756 3.9105 25.6042 3.29438 25.764 2.74112L25.8439 2.4142C25.8262 2.38067 25.8173 2.32618 25.8173 2.25074C25.8173 2.1753 25.8084 2.11243 25.7907 2.06213H21.6077C21.3412 2.16272 21.1281 2.31361 20.9682 2.51479L20.8084 2.9926C20.3643 4.14941 19.2009 5.93491 17.3181 8.34911C16.9451 8.68442 16.5099 8.85207 16.0126 8.85207Z" fill="#666666"/>
</symbol>
<symbol id="icon-youtube" width="24" height="19" viewBox="0 0 24 19" fill="none" xmlns="http://www.w3.org/2000/svg">
<path d="M15.8509 8.79275L10.6145 5.30184C10.5159 5.23691 10.4016 5.19985 10.2837 5.19459C10.1657 5.18934 10.0486 5.21608 9.94459 5.27198C9.84061 5.32789 9.75368 5.41087 9.69302 5.51215C9.63236 5.61343 9.60022 5.72924 9.6 5.84729V12.8291C9.60013 12.9481 9.6327 13.0648 9.69421 13.1667C9.75572 13.2686 9.84384 13.3518 9.94909 13.4073C10.0524 13.4631 10.1691 13.4895 10.2864 13.4837C10.4037 13.478 10.5172 13.4402 10.6145 13.3746L15.8509 9.88366C15.9409 9.82395 16.0148 9.7429 16.0658 9.64772C16.1169 9.55255 16.1436 9.44621 16.1436 9.3382C16.1436 9.23019 16.1169 9.12385 16.0658 9.02868C16.0148 8.93351 15.9409 8.85245 15.8509 8.79275ZM10.9091 11.6073V7.06911L14.3127 9.3382L10.9091 11.6073ZM23.3891 3.04366C23.2942 2.67547 23.1131 2.33511 22.8609 2.05061C22.6086 1.76611 22.2924 1.54561 21.9382 1.40729C18.2182 -0.0217993 12.2509 1.91553e-05 12 1.91553e-05C11.7491 1.91553e-05 5.78182 -0.0217993 2.06182 1.40729C1.70764 1.54561 1.3914 1.76611 1.13914 2.05061C0.886889 2.33511 0.705838 2.67547 0.610909 3.04366C0.327273 4.11275 0 6.07638 0 9.3382C0 12.6 0.327273 14.5637 0.610909 15.6327C0.705838 16.0009 0.886889 16.3413 1.13914 16.6258C1.3914 16.9103 1.70764 17.1308 2.06182 17.2691C5.78182 18.6982 11.7491 18.6764 12 18.6764H12.0764C12.8291 18.6764 18.3927 18.6327 21.9382 17.2691C22.2924 17.1308 22.6086 16.9103 22.8609 16.6258C23.1131 16.3413 23.2942 16.0009 23.3891 15.6327C23.6727 14.5637 24 12.6 24 9.3382C24 6.07638 23.6727 4.11275 23.3891 3.04366ZM22.1236 15.3055C22.0807 15.472 21.999 15.6259 21.8853 15.7548C21.7715 15.8838 21.6289 15.984 21.4691 16.0473C17.9782 17.3891 12.0655 17.3673 12 17.3673C11.9345 17.3673 6.02182 17.3891 2.53091 16.0473C2.37107 15.984 2.22846 15.8838 2.11471 15.7548C2.00096 15.6259 1.91929 15.472 1.87636 15.3055C1.61455 14.3018 1.30909 12.4582 1.30909 9.3382C1.30909 6.2182 1.61455 4.37457 1.87636 3.37093C1.91929 3.20445 2.00096 3.05047 2.11471 2.92156C2.22846 2.79264 2.37107 2.69243 2.53091 2.62911C6.02182 1.28729 11.9345 1.30911 12 1.30911C12.0655 1.30911 17.9782 1.28729 21.4691 2.62911C21.6289 2.69243 21.7715 2.79264 21.8853 2.92156C21.999 3.05047 22.0807 3.20445 22.1236 3.37093C22.3855 4.37457 22.6909 6.2182 22.6909 9.3382C22.6909 12.4582 22.3855 14.3018 22.1236 15.3055Z" fill="#666666"/>
</symbol>
<symbol id="icon-telegram" width="20" height="18" viewBox="0 0 20 18" fill="none" xmlns="http://www.w3.org/2000/svg">
<path fill-rule="evenodd" clip-rule="evenodd" d="M19.4608 0.152905C19.6393 0.302216 19.7255 0.534898 19.6872 0.764481L17.0611 16.5214C17.0244 16.7411 16.8789 16.9273 16.6745 17.0159C16.47 17.1045 16.2346 17.0833 16.0493 16.9597L8.17082 11.7074C8.01771 11.6054 7.91447 11.4437 7.88624 11.2619C7.858 11.08 7.90738 10.8947 8.02233 10.751L10.633 7.48773L6.27303 10.3944C6.077 10.525 5.82597 10.5407 5.61524 10.4353L0.362931 7.80915C0.127693 7.69153 -0.0146529 7.44488 0.00119976 7.18235C0.0170525 6.91983 0.188044 6.6921 0.435726 6.60364L18.8188 0.0382579C19.038 -0.0400244 19.2822 0.00359465 19.4608 0.152905ZM2.32626 7.32275L5.86168 9.09046L13.4231 4.0495C13.6925 3.86994 14.0525 3.91349 14.2712 4.1521C14.49 4.3907 14.5022 4.75314 14.3 5.00591L9.49502 11.0121L15.9328 15.3039L18.2083 1.65058L2.32626 7.32275Z" fill="#666666"/>
</symbol>
<symbol id="icon-mail" width="20" height="15" viewBox="0 0 20 15" fill="none" xmlns="http://www.w3.org/2000/svg">
<line x1="1.65" y1="5.84766" x2="1.65" y2="13.8477" stroke="#222222" stroke-width="1.3"/>
<line x1="18.65" y1="5.84766" x2="18.65" y2="13.8477" stroke="#222222" stroke-width="1.3"/>
<line x1="1" y1="13.1977" x2="19" y2="13.1977" stroke="#222222" stroke-width="1.3"/>
<line x1="1" y1="1.19766" x2="19" y2="1.19766" stroke="#222222" stroke-width="1.3"/>
<path d="M18.35 3.02975L10 9.5242L1.65 3.02975V1.49766H4.5L10 1.49766H15H18.35V3.02975Z" stroke="#222222" stroke-width="1.3"/>
</symbol>
<symbol id="icon-phone" width="20" height="21" viewBox="0 0 20 21" fill="none" xmlns="http://www.w3.org/2000/svg">
<g clip-path="url(#clip0_153_253)">
<path d="M17.9 9.75275H9.39999V10.9569H17.9L15.8 13.0641L16.7 13.9672L19.8 10.8565C19.8974 10.7263 19.95 10.5678 19.95 10.405C19.95 10.2421 19.8974 10.0837 19.8 9.95344L16.7 6.84277L15.8 7.74587L17.9 9.75275Z" fill="black"/>
<path d="M8.10001 19.7872V13.5659C8.08846 13.41 8.02154 13.2635 7.91142 13.153C7.80131 13.0425 7.65531 12.9754 7.50001 12.9638H3.10001C3.10516 13.2815 3.23325 13.5848 3.45718 13.8095C3.68112 14.0342 3.98336 14.1627 4.30001 14.1679H6.80001V19.1851H3.10001C2.86326 19.2 2.62591 19.1676 2.40176 19.0896C2.17762 19.0117 1.97115 18.8898 1.79436 18.7311C1.61757 18.5723 1.47399 18.3799 1.37196 18.165C1.26992 17.9501 1.21148 17.717 1.20001 17.4793V3.43111C1.19181 2.96681 1.36516 2.51774 1.68292 2.18013C2.00069 1.84252 2.43758 1.64322 2.90001 1.62492H6.80001V6.64212H4.40001C4.08336 6.64729 3.78112 6.77581 3.55718 7.00052C3.33325 7.22523 3.20516 7.52851 3.20001 7.84625H7.60001C7.75531 7.83466 7.90131 7.76751 8.01142 7.65701C8.12154 7.54651 8.18846 7.40002 8.20001 7.24418V0.922517C8.15232 0.76584 8.06117 0.626022 7.93721 0.519407C7.81325 0.412792 7.66161 0.343785 7.50001 0.320453H3.10001C2.70599 0.307054 2.31321 0.371716 1.94411 0.510744C1.57501 0.649771 1.23684 0.860436 0.948933 1.13069C0.661026 1.40095 0.42903 1.7255 0.266207 2.08579C0.103385 2.44608 0.01293 2.83504 1.46306e-05 3.23043V17.1782C-0.0289644 17.5773 0.0246504 17.978 0.157487 18.3552C0.290324 18.7324 0.499509 19.078 0.771886 19.3701C1.04426 19.6623 1.37394 19.8947 1.74019 20.0529C2.10643 20.211 2.50132 20.2913 2.90001 20.2889H7.50001C7.5735 20.304 7.64943 20.3022 7.72216 20.2839C7.7949 20.2655 7.86259 20.2309 7.92021 20.1828C7.97783 20.1346 8.02391 20.074 8.05504 20.0055C8.08616 19.9371 8.10153 19.8624 8.10001 19.7872Z" fill="black"/>
</g>
<defs>
<clipPath id="clip0_153_253">
<rect width="20" height="20.0688" fill="white" transform="translate(0 0.320435)"/>
</clipPath>
</defs>
</symbol>
<symbol id="plus-icon" width="30" height="30" viewBox="0 0 30 30" fill="none" xmlns="http://www.w3.org/2000/svg">
<line x1="15" x2="15" y2="30" stroke="#D3D3D3" stroke-width="2"/>
<line x1="30" y1="15" y2="15" stroke="#D3D3D3" stroke-width="2"/>
</symbol>
<symbol id="gift-icon" width="78" height="80" viewBox="0 0 78 80" fill="none" xmlns="http://www.w3.org/2000/svg">
<path d="M64.0156 34.7127H14.031C12.2766 34.7127 10.8494 33.2951 10.8494 31.5524V22.0842C10.8494 20.3415 12.2766 18.9233 14.031 18.9233H64.0149C65.7687 18.9233 67.1953 20.3415 67.1953 22.0842V31.553C67.1959 33.2951 65.7693 34.7127 64.0156 34.7127ZM14.031 21.3455C13.6276 21.3455 13.2869 21.684 13.2869 22.0842V31.553C13.2869 31.9599 13.6208 32.2912 14.031 32.2912H64.0149C64.4244 32.2912 64.7578 31.9599 64.7578 31.553V22.0842C64.7578 21.6834 64.4171 21.3455 64.0149 21.3455H14.031Z" fill="white"/>
<path d="M57.0447 67.1488H20.999C17.6218 67.1488 14.8741 64.4191 14.8741 61.0626V33.5016C14.8741 32.8331 15.4201 32.2905 16.0929 32.2905C16.7656 32.2905 17.3116 32.8331 17.3116 33.5016V61.0626C17.3116 63.0833 18.9661 64.7267 20.999 64.7267H57.0447C59.077 64.7267 60.7308 63.0833 60.7308 61.0626V33.5016C60.7308 32.8331 61.2768 32.2905 61.9496 32.2905C62.6223 32.2905 63.1683 32.8331 63.1683 33.5016V61.0626C63.1683 64.4191 60.4213 67.1488 57.0447 67.1488Z" fill="white"/>
<path d="M39.0225 67.1488C38.3498 67.1488 37.8038 66.6069 37.8038 65.9378V33.5016C37.8038 32.8331 38.3498 32.2905 39.0225 32.2905C39.6953 32.2905 40.2413 32.8331 40.2413 33.5016V65.9372C40.2413 66.6069 39.6959 67.1488 39.0225 67.1488Z" fill="white"/>
<path d="M23.8113 21.3414C19.9966 19.2874 18.5731 14.5327 20.6383 10.7415C22.7022 6.95201 27.4864 5.53687 31.303 7.58721C37.117 10.7166 40.2565 19.4472 40.3869 19.8172L38.0877 20.6208C38.0585 20.5384 35.1256 12.3994 30.1433 9.71749C27.5078 8.30175 24.2062 9.27908 22.7821 11.8944C21.3567 14.5121 22.339 17.7941 24.9734 19.2117L23.8113 21.3414Z" fill="white"/>
<path d="M54.2313 21.3413L53.071 19.2111C54.3477 18.5238 55.2782 17.3848 55.6926 16.0035C56.1063 14.6217 55.9534 13.1624 55.2617 11.895C54.5719 10.6264 53.4263 9.70233 52.0363 9.29117C50.6457 8.88001 49.1783 9.0314 47.9023 9.71747C42.9201 12.3988 39.9871 20.5378 39.9579 20.6202L37.6587 19.8166C37.7891 19.4466 40.928 10.716 46.7421 7.58719C48.5897 6.5929 50.7182 6.3737 52.7316 6.96955C54.7468 7.56479 56.4061 8.90484 57.4061 10.7414C58.4073 12.5774 58.6285 14.6913 58.0289 16.6939C57.4287 18.6958 56.0801 20.3458 54.2313 21.3413Z" fill="white"/>
<path d="M61.9496 50.9314H16.0929C15.4201 50.9314 14.8741 50.3889 14.8741 49.7204C14.8741 49.0518 15.4201 48.5093 16.0929 48.5093H61.9496C62.6223 48.5093 63.1683 49.0518 63.1683 49.7204C63.1683 50.3889 62.6229 50.9314 61.9496 50.9314Z" fill="white"/>
</symbol>
<symbol id="logo-tablet" width="174" height="52" viewBox="0 0 174 52" fill="none" xmlns="http://www.w3.org/2000/svg">
<g clip-path="url(#clip0_2403_1722)">
<path d="M51.5819 20.854C50.0969 17.265 47.7053 14.1312 44.6456 11.7649C41.5858 9.39869 37.9646 7.88262 34.143 7.36781C30.3214 6.85301 26.4328 7.35745 22.8646 8.83086C19.2965 10.3043 16.1735 12.6952 13.8068 15.7654C11.4402 18.8355 9.9125 22.4777 9.37609 26.329C8.83968 30.1802 9.31325 34.106 10.7496 37.7151C12.186 41.3242 14.535 44.4906 17.5625 46.8987C20.59 49.3068 24.1903 50.8726 28.0046 51.4399C27.505 49.6238 26.9967 47.6166 26.5488 45.4878C27.8519 46.3405 29.2235 47.0816 30.6492 47.7035C30.6492 47.7035 30.7526 49.5804 30.8904 51.6745C32.4308 51.7013 33.9698 51.5644 35.4818 51.2661C35.4427 51.0477 35.4427 50.8241 35.4818 50.6057C35.7316 48.9808 36.4208 46.0526 36.5586 44.167C37.552 43.2297 38.3948 42.1421 39.0567 40.9434L39.005 41.3257C38.5312 45.0273 37.5406 48.9808 36.9376 50.0757C36.7424 50.4381 36.5021 50.7739 36.2226 51.0749C39.3408 50.3371 42.2626 48.924 44.7855 46.9336C47.3083 44.9433 49.3718 42.4233 50.8329 39.5484C52.2941 36.6735 53.1179 33.5124 53.2472 30.2843C53.3765 27.0563 52.8083 23.8385 51.5819 20.854ZM50.3156 24.1472C49.9366 24.5208 49.1527 24.7728 49.0235 23.6432C48.8942 22.5136 48.8598 21.7229 48.8598 21.7229C48.8598 21.7229 47.1972 18.7425 46.577 18.7078C45.9568 18.673 41.5549 21.7229 40.3919 23.0524C39.3841 24.1733 39.1859 24.0951 39.1859 26.0675C39.1859 27.5534 39.3755 33.1666 39.2721 37.459L32.2514 39.3446C30.0448 39.9834 27.8007 40.4825 25.5323 40.8391L24.6709 35.7733H24.5503L22.3364 24.3297C22.3364 24.3297 19.0543 23.0784 17.8483 22.7396C17.2821 22.4897 16.6568 22.4084 16.0462 22.5054C15.4356 22.6024 14.8653 22.8736 14.4026 23.287C13.9306 23.7039 13.5531 24.2185 13.296 24.7958C13.0388 25.373 12.908 25.9994 12.9124 26.6323C13.0945 27.0362 13.2331 27.4585 13.3258 27.8922C13.3689 28.3093 12.2921 28.2659 11.603 28.2659C10.9138 28.2659 10.8105 27.0146 11.3532 25.5462C11.7766 24.417 12.3013 23.3292 12.921 22.2964C13.387 21.3738 13.9881 20.5273 14.7041 19.7852C14.7041 19.7852 14.8247 19.4898 15.7809 19.5767C16.7371 19.6636 22.0521 19.9503 22.0521 19.9503L22.0952 17.9779C27.8722 17.1733 33.6987 16.7842 39.5305 16.8135C39.5305 17.3436 39.5305 17.8736 39.5305 18.4037C41.7394 17.3869 44.118 16.7974 46.5425 16.6658C46.6723 16.6625 46.8008 16.6917 46.9166 16.7509C47.0323 16.81 47.1317 16.8973 47.2058 17.0047C47.4987 17.3783 49.2819 19.6115 49.4886 19.933C50.0677 20.7677 50.5942 21.6383 51.065 22.5397C50.9037 23.1104 50.6505 23.6505 50.3156 24.1385V24.1472Z" fill="#FDC305"/>
<path d="M48.6363 18.8294C49.0411 19.3508 49.3943 19.8113 49.4977 19.9503C50.0768 20.7851 50.6033 21.6557 51.0741 22.5571C50.9102 23.1091 50.6601 23.6312 50.3333 24.1038C49.9543 24.4774 49.1704 24.7294 49.0411 23.5998C48.9119 22.4702 48.8602 21.7229 48.8602 21.7229C48.8602 21.7229 47.1977 18.7425 46.5775 18.7078C45.9572 18.673 41.5553 21.7229 40.3924 23.0524C39.3845 24.1733 39.1864 24.0951 39.1864 26.0675C39.1864 27.3709 39.3328 31.8458 39.2984 35.8254C40.8576 35.9992 43.149 36.4337 43.8381 37.459C43.8381 37.459 43.5883 31.2202 50.5659 34.4873C50.5659 34.4873 50.8071 25.9806 60.4378 28.1616C57.1639 24.2844 53.1505 21.1107 48.6363 18.8294V18.8294Z" fill="#F06351"/>
<path d="M39.5654 16.8135C39.6005 11.9987 39.1968 7.1907 38.3594 2.45035C38.3594 2.45035 38.2302 1.32075 37.61 2.24181C37.0982 3.34291 36.7499 4.51402 36.5763 5.71747C32.8938 5.47914 29.1975 5.57802 25.5328 6.0129C24.8264 3.62338 23.6204 2.53724 23.0432 2.82398C22.4661 3.11072 22.3972 5.67403 22.3972 5.67403L22.1129 17.9779C27.8956 17.1725 33.7279 16.7834 39.5654 16.8135Z" fill="#F06351"/>
<path d="M39.0651 40.9434C39.1771 40.0136 39.2374 38.7798 39.2719 37.4156L32.2516 39.3011C30.0459 39.9546 27.8019 40.4682 25.5327 40.8391L26.4889 45.1837C26.4889 45.2793 26.4889 45.3748 26.5492 45.4704C27.8522 46.3231 29.2238 47.0642 30.6494 47.6862C32.7328 46.6815 34.7171 45.4799 36.5757 44.0975V44.1497C37.5647 43.217 38.4044 42.1354 39.0651 40.9434V40.9434Z" fill="#E55645"/>
<path d="M27.5657 14.0938C27.5227 14.0069 28.4271 14.6847 28.7803 14.8932C29.1334 15.1018 29.3057 15.2582 29.3057 15.4059C29.3057 15.5536 29.0818 15.7013 28.7717 15.7013C28.4616 15.7013 27.9792 15.5971 27.9103 15.4754C27.8414 15.3538 28.4271 15.4754 28.72 15.4754H28.9698C28.4395 15.084 27.9667 14.6189 27.5657 14.0938Z" fill="black"/>
<path d="M34.0264 14.1894C34.0264 14.1894 33.165 15.3016 33.0875 15.3538C33.0099 15.4059 32.941 15.6492 33.2511 15.6057C33.6071 15.5521 33.9585 15.4708 34.302 15.3624C34.3968 15.3103 34.3623 15.1887 34.1986 15.206C34.035 15.2234 33.6129 15.2495 33.3373 15.3016L34.0694 14.1981C34.0694 14.1981 34.0953 14.0938 34.0264 14.1894Z" fill="black"/>
<path d="M31.3215 19.4985C31.7208 19.321 32.0508 19.0156 32.2604 18.6296C32.5016 18.0561 32.2604 17.8389 31.8814 17.7607C31.36 17.6647 30.8218 17.7702 30.374 18.0561C30.038 18.3776 30.0811 18.6904 30.374 18.925C30.6649 19.1552 30.9832 19.3478 31.3215 19.4985V19.4985Z" fill="black"/>
<path d="M31.0113 20.5933C30.9124 20.7904 30.778 20.9672 30.615 21.1147C30.3697 21.3138 30.0682 21.4294 29.7537 21.4449C29.2794 21.4918 28.8052 21.3552 28.4271 21.0625C28.2535 20.9601 28.099 20.8278 27.9706 20.6715C27.8844 20.5769 27.7785 20.5027 27.6605 20.4543C27.6605 20.4543 28.3065 24.0255 29.8743 24.599C31.442 25.1725 31.7348 23.9387 31.7779 23.6085C31.8304 22.6196 31.5841 21.6379 31.0716 20.7932C31.0716 20.5325 31.0544 20.7063 31.0113 20.5933Z" fill="#F06351"/>
<path d="M29.5469 21.5839C29.1438 21.5254 28.7566 21.3852 28.4087 21.1716C28.0608 20.9581 27.7594 20.6756 27.5226 20.3413C27.5015 20.3174 27.4897 20.2865 27.4897 20.2544C27.4897 20.2224 27.5015 20.1915 27.5226 20.1676C27.5339 20.156 27.5473 20.1468 27.5621 20.1405C27.5769 20.1343 27.5927 20.131 27.6088 20.131C27.6248 20.131 27.6407 20.1343 27.6555 20.1405C27.6703 20.1468 27.6837 20.156 27.6949 20.1676C27.9081 20.4692 28.1785 20.7252 28.4905 20.9206C28.8025 21.116 29.1499 21.2469 29.5124 21.3058C29.7993 21.2841 30.0769 21.194 30.3225 21.0429C30.5681 20.8919 30.7746 20.6842 30.9251 20.4369L31.0457 20.2718L31.1319 20.463C31.1319 20.463 31.4592 21.1234 31.9932 21.1581C32.5273 21.1929 32.9063 20.7932 33.3973 20.0372C33.4156 20.0096 33.444 19.9904 33.4763 19.9838C33.5086 19.9773 33.5422 19.984 33.5696 20.0025C33.597 20.0209 33.616 20.0496 33.6225 20.0822C33.6289 20.1147 33.6223 20.1486 33.604 20.1762C33.0298 21.0278 32.4871 21.4362 31.976 21.4014C31.7785 21.375 31.5893 21.3043 31.4224 21.1946C31.2554 21.0848 31.115 20.9388 31.0113 20.7671C30.8427 21.0045 30.6238 21.201 30.3705 21.3423C30.1172 21.4836 29.8358 21.5661 29.5469 21.5839Z" fill="black"/>
<path d="M31.2353 33.2795C33.0192 33.2795 34.4655 31.8207 34.4655 30.0211C34.4655 28.2215 33.0192 26.7626 31.2353 26.7626C29.4513 26.7626 28.0051 28.2215 28.0051 30.0211C28.0051 31.8207 29.4513 33.2795 31.2353 33.2795Z" fill="#FDC305"/>
<path d="M35.5163 27.3709L32.8202 28.5092L33.8108 23.6172L27.3504 32.0978L30.0465 30.9595L29.0559 35.8602L35.5163 27.3709ZM29.1507 30.6988L32.734 25.998L32.0363 29.4737L33.7591 28.7611L30.1499 33.4707L30.8476 29.995L29.1507 30.6988Z" fill="#111111"/>
<path d="M27.9447 29.4215C28.4775 29.4215 28.9095 28.9858 28.9095 28.4483C28.9095 27.9109 28.4775 27.4751 27.9447 27.4751C27.4119 27.4751 26.9799 27.9109 26.9799 28.4483C26.9799 28.9858 27.4119 29.4215 27.9447 29.4215Z" fill="#111111"/>
<path d="M33.5612 32.9493C33.9371 32.9493 34.2417 32.642 34.2417 32.2629C34.2417 31.8838 33.9371 31.5764 33.5612 31.5764C33.1854 31.5764 32.8807 31.8838 32.8807 32.2629C32.8807 32.642 33.1854 32.9493 33.5612 32.9493Z" fill="#111111"/>
<path d="M34.3882 31.0638C34.5547 31.0638 34.6897 30.9276 34.6897 30.7597C34.6897 30.5917 34.5547 30.4555 34.3882 30.4555C34.2217 30.4555 34.0867 30.5917 34.0867 30.7597C34.0867 30.9276 34.2217 31.0638 34.3882 31.0638Z" fill="#111111"/>
<path d="M39.5224 18.3863C37.9674 19.8002 36.5029 21.3123 35.1377 22.9133C33.7778 24.5028 32.2433 25.9312 30.5635 27.171C30.374 26.7105 29.1594 25.8503 29.1594 25.8503C29.1594 25.8503 26.4545 23.9821 24.6799 22.5136C23.7207 21.7077 22.8169 20.8368 21.9751 19.9069L20.2522 19.8113C22.7392 23.4757 26.3826 26.183 30.5893 27.4925C31.3302 27.3709 33.4148 25.8677 34.974 24.6425C36.8187 23.0601 38.5461 21.3437 40.1426 19.5072C40.5717 18.9928 40.9044 18.4039 41.1246 17.7693C40.1426 18.0995 39.5224 18.3863 39.5224 18.3863Z" fill="#F06351"/>
<path d="M22.3368 24.3297C22.3368 24.3297 19.0548 23.0784 17.8488 22.7396C17.2825 22.4897 16.6572 22.4084 16.0467 22.5054C15.4361 22.6024 14.8658 22.8736 14.4031 23.287C13.931 23.7039 13.5536 24.2185 13.2964 24.7958C13.0393 25.373 12.9084 25.9994 12.9128 26.6323C13.0949 27.0362 13.2335 27.4585 13.3263 27.8922C13.3694 28.3093 12.2926 28.2659 11.6034 28.2659C10.9143 28.2659 10.8109 27.0146 11.3536 25.5462C11.777 24.417 12.3018 23.3292 12.9214 22.2964C8.22664 24.7641 0 30.4642 0 30.4642C2.35316 30.3211 4.71429 30.3909 7.0551 30.6728C11.5776 31.1333 11.3622 34.7306 11.3622 34.7306C12.9529 34.2883 14.574 33.9659 16.2121 33.7661C18.0383 33.6445 18.1675 35.6082 18.1675 35.6082L18.6241 38.9622C19.3173 38.2057 20.0819 37.5189 20.9069 36.9116C21.9703 36.0529 23.3243 35.6476 24.6799 35.782V35.782L22.3368 24.3297Z" fill="#F06351"/>
<path d="M73.7899 36.4945C72.9025 35.1681 72.4782 33.5814 72.584 31.9848V25.468C72.472 23.8596 72.8899 22.2589 73.7727 20.9148C74.5709 19.8779 75.9348 19.3624 77.8643 19.3682C79.7938 19.374 81.1002 19.8287 81.7836 20.7324C82.6168 21.8522 83.0234 23.2368 82.9292 24.6338V26.1631H79.3631V24.5035C79.3583 24.0668 79.3208 23.6311 79.2511 23.2001C79.208 22.8881 79.066 22.5985 78.8462 22.3746C78.7106 22.2573 78.5531 22.1684 78.3831 22.1132C78.213 22.058 78.0337 22.0376 77.8557 22.0531C77.6 22.0146 77.3388 22.0565 77.1076 22.1731C76.8764 22.2898 76.6864 22.4754 76.5636 22.7048C76.3371 23.315 76.2374 23.9657 76.2707 24.6164V32.8885C76.2314 33.5435 76.3465 34.1986 76.6066 34.8001C76.7309 35.0171 76.9153 35.1927 77.1372 35.3054C77.3591 35.4181 77.6088 35.463 77.8557 35.4344C78.0982 35.469 78.3454 35.4255 78.5619 35.31C78.7785 35.1946 78.9533 35.0131 79.0616 34.7914C79.27 34.1801 79.3606 33.5342 79.3286 32.8885V31.1507H82.8948V32.6539C82.9997 34.0715 82.6263 35.4832 81.8353 36.6596C81.0772 37.6154 79.7679 38.0846 77.9073 38.0846C76.0467 38.0846 74.591 37.5633 73.7899 36.4945Z" fill="#111111"/>
<path d="M87.788 19.6201H91.871L95.3166 37.8674H91.9227L91.3111 33.8356H88.4513L87.7622 37.8413H84.3167L87.788 19.6201ZM90.9321 31.5417L89.8468 24.208L88.77 31.5417H90.9321Z" fill="#111111"/>
<path d="M97.9615 22.3659H95.1707V19.6201H104.405V22.3659H101.648V37.8413H97.9529L97.9615 22.3659Z" fill="#111111"/>
<path d="M111.65 19.6201H118.653V21.5144H114.174V27.536H117.809V29.3346H114.174V36.0166H118.696V37.8413H111.65V19.6201Z" fill="#444444"/>
<path d="M120.729 19.6201H122.452L127.62 31.7241V19.6201H129.722V37.8674H128.111L122.943 25.4245V37.8413H120.807L120.729 19.6201Z" fill="#444444"/>
<path d="M132.505 19.6201H139.499V21.5144H135.02V27.536H138.69V29.3346H135.055V36.0166H139.551V37.8413H132.505V19.6201Z" fill="#444444"/>
<path d="M141.576 19.6201H145.211C146.643 19.5039 148.07 19.9075 149.234 20.7584C150.095 21.5144 150.517 22.7482 150.517 24.46C150.517 26.7771 149.773 28.1935 148.286 28.709L150.87 37.8413H148.424L146.055 29.2912H144.1V37.8413H141.576V19.6201ZM145.021 27.4404C145.851 27.5214 146.681 27.2858 147.347 26.78C147.618 26.4569 147.82 26.0812 147.942 25.6763C148.063 25.2713 148.101 24.8456 148.053 24.4253C148.071 23.8357 147.986 23.2477 147.804 22.6874C147.73 22.4808 147.615 22.2913 147.467 22.1301C147.319 21.969 147.141 21.8393 146.942 21.749C146.383 21.5176 145.78 21.4137 145.176 21.4449H144.065V27.4751L145.021 27.4404Z" fill="#444444"/>
<path d="M153.911 36.4945C153.088 35.0926 152.707 33.4714 152.817 31.8458V25.7634C152.788 24.5896 152.933 23.418 153.248 22.2877C153.497 21.438 154.026 20.6992 154.747 20.1936C155.618 19.6642 156.626 19.41 157.641 19.4637C158.298 19.4007 158.961 19.4832 159.582 19.7053C160.204 19.9274 160.771 20.2839 161.242 20.7497C162.068 21.9176 162.459 23.3426 162.344 24.7728V25.4506H159.976V24.8858C159.992 24.2103 159.94 23.5348 159.821 22.8699C159.742 22.4437 159.509 22.0626 159.166 21.8011C158.719 21.5349 158.202 21.4108 157.684 21.4449C157.122 21.3963 156.562 21.5709 156.125 21.9315C155.768 22.2734 155.534 22.7261 155.462 23.2175C155.353 23.9332 155.304 24.657 155.315 25.3811V32.1499C155.247 33.1785 155.421 34.2088 155.824 35.1564C156.057 35.4478 156.354 35.6814 156.691 35.8395C157.028 35.9975 157.396 36.0757 157.768 36.0682C158.139 36.0606 158.504 35.9675 158.835 35.7959C159.165 35.6243 159.452 35.3788 159.674 35.0782C160.089 34.076 160.269 32.9905 160.2 31.9066V30.6206H157.908V28.822H162.474V37.8413H160.914L160.665 35.7472C160.467 36.4429 160.042 37.0508 159.459 37.472C158.876 37.8933 158.168 38.103 157.452 38.0672C156.778 38.1272 156.1 38.0144 155.481 37.7395C154.862 37.4645 154.322 37.0363 153.911 36.4945V36.4945Z" fill="#444444"/>
<path d="M167.711 31.4113L163.809 19.6201H166.152L168.917 28.4136L171.639 19.6201H174.008L170.132 31.4113V37.8413H167.72L167.711 31.4113Z" fill="#444444"/>
</g>
<defs>
<clipPath id="clip0_2403_1722">
<rect width="174" height="51.6832" fill="white"/>
</clipPath>
</defs>
</symbol>

</svg>
