<svg id="icon-clock" width="61" height="60" aria-labelledby="icon-of-clock" focusable="false" viewBox="0 0 61 60" fill="none" xmlns="http://www.w3.org/2000/svg">
<rect x="0.75" width="60" height="60" fill="#68B738"/>
<ellipse cx="35.9542" cy="24.3299" rx="1.0873" ry="1.08512" fill="white"/>
<ellipse cx="25.0811" cy="24.3299" rx="1.08731" ry="1.08512" fill="white"/>
<ellipse cx="25.0811" cy="37.3512" rx="1.08731" ry="1.08512" fill="white"/>
<ellipse cx="30.5177" cy="39.5215" rx="1.0873" ry="1.08512" fill="white"/>
<ellipse cx="21.8192" cy="30.7748" rx="1.08731" ry="1.08512" fill="white"/>
<ellipse cx="39.2161" cy="30.7748" rx="1.0873" ry="1.08512" fill="white"/>
<ellipse cx="35.9542" cy="37.3512" rx="1.0873" ry="1.08512" fill="white"/>
<mask id="path-9-inside-1_95_39" fill="white">
<path fill-rule="evenodd" clip-rule="evenodd" d="M35.6715 42.0581C36.0798 41.8622 36.5726 41.9298 36.8885 42.2542L38.7144 44.1292C38.9819 44.4039 39.4234 44.4039 39.691 44.1292C39.9487 43.8645 39.9487 43.4427 39.691 43.1781L38.3343 41.7849C37.9084 41.3475 37.9728 40.6356 38.432 40.2333C41.0738 37.9195 42.75 34.4688 42.75 30.6145C42.75 23.6477 37.2735 18 30.5178 18C23.7622 18 18.2856 23.6477 18.2856 30.6145C18.2856 34.4288 19.9273 37.8477 22.5217 40.1608C22.9744 40.5644 23.0349 41.2708 22.6117 41.7054L21.1776 43.1781C20.9198 43.4427 20.9198 43.8645 21.1776 44.1291C21.4451 44.4039 21.8866 44.4039 22.1542 44.1292L24.0338 42.199C24.3525 41.8718 24.8504 41.8061 25.2602 42.0076C26.853 42.7907 28.6358 43.229 30.5178 43.229C32.359 43.229 34.1053 42.8095 35.6715 42.0581ZM30.5178 41.8274C36.5228 41.8274 41.3909 36.8072 41.3909 30.6145C41.3909 24.4218 36.5228 19.4016 30.5178 19.4016C24.5128 19.4016 19.6448 24.4218 19.6448 30.6145C19.6448 36.8072 24.5128 41.8274 30.5178 41.8274ZM29.7583 30.298V26.5001V22.9409C29.7583 22.5094 30.1081 22.1596 30.5395 22.1596C30.971 22.1596 31.3208 22.5094 31.3208 22.9409V26.5001V30.298V30.8406V31.1226C31.3208 31.5661 30.9613 31.9257 30.5177 31.9257C30.0983 31.9257 29.7583 31.5857 29.7583 31.1663V30.8406V30.298Z"/>
</mask>
<path fill-rule="evenodd" clip-rule="evenodd" d="M35.6715 42.0581C36.0798 41.8622 36.5726 41.9298 36.8885 42.2542L38.7144 44.1292C38.9819 44.4039 39.4234 44.4039 39.691 44.1292C39.9487 43.8645 39.9487 43.4427 39.691 43.1781L38.3343 41.7849C37.9084 41.3475 37.9728 40.6356 38.432 40.2333C41.0738 37.9195 42.75 34.4688 42.75 30.6145C42.75 23.6477 37.2735 18 30.5178 18C23.7622 18 18.2856 23.6477 18.2856 30.6145C18.2856 34.4288 19.9273 37.8477 22.5217 40.1608C22.9744 40.5644 23.0349 41.2708 22.6117 41.7054L21.1776 43.1781C20.9198 43.4427 20.9198 43.8645 21.1776 44.1291C21.4451 44.4039 21.8866 44.4039 22.1542 44.1292L24.0338 42.199C24.3525 41.8718 24.8504 41.8061 25.2602 42.0076C26.853 42.7907 28.6358 43.229 30.5178 43.229C32.359 43.229 34.1053 42.8095 35.6715 42.0581ZM30.5178 41.8274C36.5228 41.8274 41.3909 36.8072 41.3909 30.6145C41.3909 24.4218 36.5228 19.4016 30.5178 19.4016C24.5128 19.4016 19.6448 24.4218 19.6448 30.6145C19.6448 36.8072 24.5128 41.8274 30.5178 41.8274ZM29.7583 30.298V26.5001V22.9409C29.7583 22.5094 30.1081 22.1596 30.5395 22.1596C30.971 22.1596 31.3208 22.5094 31.3208 22.9409V26.5001V30.298V30.8406V31.1226C31.3208 31.5661 30.9613 31.9257 30.5177 31.9257C30.0983 31.9257 29.7583 31.5857 29.7583 31.1663V30.8406V30.298Z" fill="white"/>
<path d="M24.0338 42.199L26.8995 44.9896L24.0338 42.199ZM25.2602 42.0076L27.025 38.418L25.2602 42.0076ZM22.1542 44.1292L19.2885 41.3385L22.1542 44.1292ZM21.1776 43.1781L24.0432 45.9687L21.1776 43.1781ZM38.3343 41.7849L35.4686 44.5756L38.3343 41.7849ZM38.432 40.2333L35.7965 37.2243L38.432 40.2333ZM22.5217 40.1608L19.8597 43.1464L22.5217 40.1608ZM22.6117 41.7054L19.7461 38.9147L22.6117 41.7054ZM39.691 43.1781L42.5567 40.3874L39.691 43.1781ZM38.7144 44.1292L41.5801 41.3385L38.7144 44.1292ZM36.8885 42.2542L34.0228 45.0449L36.8885 42.2542ZM35.6715 42.0581L33.9413 38.4516L35.6715 42.0581ZM34.0228 45.0449L35.8487 46.9198L41.5801 41.3385L39.7542 39.4636L34.0228 45.0449ZM42.5567 40.3874L41.2 38.9942L35.4686 44.5756L36.8253 45.9688L42.5567 40.3874ZM41.0675 43.2423C44.5575 40.1855 46.75 35.6466 46.75 30.6145H38.75C38.75 33.2911 37.5901 35.6534 35.7965 37.2243L41.0675 43.2423ZM46.75 30.6145C46.75 21.5555 39.5978 14 30.5178 14V22C34.9492 22 38.75 25.7399 38.75 30.6145H46.75ZM30.5178 14C21.4379 14 14.2856 21.5555 14.2856 30.6145H22.2856C22.2856 25.7399 26.0865 22 30.5178 22V14ZM14.2856 30.6145C14.2856 35.5943 16.433 40.0912 19.8597 43.1464L25.1836 37.1752C23.4216 35.6042 22.2856 33.2633 22.2856 30.6145H14.2856ZM19.7461 38.9147L18.3119 40.3874L24.0432 45.9687L25.4774 44.496L19.7461 38.9147ZM25.0199 46.9198L26.8995 44.9896L21.1681 39.4083L19.2885 41.3385L25.0199 46.9198ZM23.4954 45.5972C25.6222 46.6429 28.0073 47.229 30.5178 47.229V39.229C29.2643 39.229 28.0837 38.9385 27.025 38.418L23.4954 45.5972ZM30.5178 47.229C32.9736 47.229 35.3098 46.6681 37.4017 45.6645L33.9413 38.4516C32.9008 38.9508 31.7444 39.229 30.5178 39.229V47.229ZM30.5178 45.8274C38.8471 45.8274 45.3909 38.8994 45.3909 30.6145H37.3909C37.3909 34.715 34.1985 37.8274 30.5178 37.8274V45.8274ZM45.3909 30.6145C45.3909 22.3296 38.8471 15.4016 30.5178 15.4016V23.4016C34.1985 23.4016 37.3909 26.514 37.3909 30.6145H45.3909ZM30.5178 15.4016C22.1885 15.4016 15.6448 22.3296 15.6448 30.6145H23.6448C23.6448 26.514 26.8371 23.4016 30.5178 23.4016V15.4016ZM15.6448 30.6145C15.6448 38.8994 22.1885 45.8274 30.5178 45.8274V37.8274C26.8371 37.8274 23.6448 34.715 23.6448 30.6145H15.6448ZM27.3208 30.298V30.8406H35.3208V30.298H27.3208ZM27.3208 30.8406V31.1226H35.3208V30.8406H27.3208ZM33.7583 31.1663V30.8406H25.7583V31.1663H33.7583ZM33.7583 30.8406V30.298H25.7583V30.8406H33.7583ZM33.7583 30.298V26.5001H25.7583V30.298H33.7583ZM33.7583 26.5001V22.9409H25.7583V26.5001H33.7583ZM27.3208 22.9409V26.5001H35.3208V22.9409H27.3208ZM27.3208 26.5001V30.298H35.3208V26.5001H27.3208ZM30.5395 18.1596C27.8989 18.1596 25.7583 20.3003 25.7583 22.9409H33.7583C33.7583 24.7186 32.3172 26.1596 30.5395 26.1596V18.1596ZM27.3208 31.1226C27.3208 29.357 28.7521 27.9257 30.5177 27.9257V35.9257C33.1704 35.9257 35.3208 33.7753 35.3208 31.1226H27.3208ZM26.8995 44.9896C25.9069 46.009 24.5021 46.0922 23.4954 45.5972L27.025 38.418C25.1987 37.52 22.798 37.7346 21.1681 39.4083L26.8995 44.9896ZM18.3119 46.9198C20.1497 48.807 23.1821 48.807 25.0199 46.9198L19.2885 41.3385C20.5912 40.0008 22.7406 40.0008 24.0433 41.3385L18.3119 46.9198ZM18.3119 40.3874C16.5417 42.2051 16.5417 45.1021 18.3119 46.9198L24.0433 41.3385C25.298 42.6269 25.2979 44.6803 24.0432 45.9687L18.3119 40.3874ZM41.2 38.9942C42.5427 40.3731 42.144 42.2994 41.0675 43.2423L35.7965 37.2243C33.8015 38.9717 33.274 42.3219 35.4686 44.5756L41.2 38.9942ZM30.5395 26.1596C28.7619 26.1596 27.3208 24.7186 27.3208 22.9409H35.3208C35.3208 20.3003 33.1802 18.1596 30.5395 18.1596V26.1596ZM19.8597 43.1464C18.7963 42.1983 18.4126 40.2839 19.7461 38.9147L25.4774 44.496C27.6571 42.2577 27.1525 38.9306 25.1836 37.1752L19.8597 43.1464ZM42.5567 46.9198C44.3268 45.1021 44.3268 42.2051 42.5567 40.3874L36.8253 45.9688C35.5706 44.6803 35.5706 42.6269 36.8253 41.3385L42.5567 46.9198ZM35.8487 46.9198C37.6865 48.807 40.7189 48.807 42.5567 46.9198L36.8253 41.3385C38.128 40.0008 40.2774 40.0008 41.5801 41.3385L35.8487 46.9198ZM30.5177 27.9257C32.3074 27.9257 33.7583 29.3765 33.7583 31.1663H25.7583C25.7583 33.7948 27.8891 35.9257 30.5177 35.9257V27.9257ZM39.7542 39.4636C38.1381 37.804 35.7617 37.5783 33.9413 38.4516L37.4017 45.6645C36.398 46.1461 35.007 46.0555 34.0228 45.0449L39.7542 39.4636Z" fill="white" mask="url(#path-9-inside-1_95_39)"/>
<rect x="29.75" y="19" width="4" height="1.5" transform="rotate(-90 29.75 19)" fill="white"/>
<rect x="22.75" y="15" width="15.5" height="1.5" rx="0.75" fill="white"/>
</svg>
