<svg id="icon-fork" width="61" height="60" viewBox="0 0 61 60" fill="none" aria-labelledby="icon-of-fork" focusable="false" xmlns="http://www.w3.org/2000/svg">
<rect x="0.75" width="60" height="60" fill="#68B738"/>
<path fill-rule="evenodd" clip-rule="evenodd" d="M37.3673 15.0761C37.741 14.9214 38.1711 15.0069 38.4571 15.2929C39.3656 16.2014 40.5538 18.1706 41.5159 21.2108C42.4873 24.2804 43.25 28.5081 43.25 34C43.25 34.5523 42.8023 35 42.25 35H38.75V44C38.75 44.5523 38.3023 45 37.75 45C37.1977 45 36.75 44.5523 36.75 44V16C36.75 15.5956 36.9936 15.2309 37.3673 15.0761ZM38.75 33H41.2412C41.1553 28.1836 40.4551 24.4875 39.6091 21.8142C39.3307 20.9346 39.0385 20.1715 38.75 19.519V33Z" fill="white"/>
<path fill-rule="evenodd" clip-rule="evenodd" d="M24.75 15C25.3023 15 25.75 15.4477 25.75 16V44C25.75 44.5523 25.3023 45 24.75 45C24.1977 45 23.75 44.5523 23.75 44V16C23.75 15.4477 24.1977 15 24.75 15Z" fill="white"/>
<path fill-rule="evenodd" clip-rule="evenodd" d="M20.25 15C20.8023 15 21.25 15.4477 21.25 16V21.5C21.25 22.0569 21.442 22.8152 21.9509 23.4166C22.43 23.9828 23.2645 24.5 24.7499 24.5C25.3022 24.5 25.7499 24.9477 25.7499 25.5C25.7499 26.0523 25.3022 26.5 24.7499 26.5C22.7355 26.5 21.32 25.7672 20.4241 24.7084C19.558 23.6848 19.25 22.4431 19.25 21.5V16C19.25 15.4477 19.6977 15 20.25 15Z" fill="white"/>
<path fill-rule="evenodd" clip-rule="evenodd" d="M29.25 15C28.6977 15 28.25 15.4477 28.25 16V21.5C28.25 22.0569 28.058 22.8152 27.5491 23.4166C27.07 23.9828 26.2354 24.5 24.7499 24.5C24.1976 24.5 23.7501 24.9477 23.7501 25.5C23.7501 26.0523 24.1976 26.5 24.7499 26.5C26.7644 26.5 28.18 25.7672 29.0759 24.7084C29.942 23.6848 30.25 22.4431 30.25 21.5V16C30.25 15.4477 29.8023 15 29.25 15Z" fill="white"/>
</svg>
