<svg width="101" height="19" viewBox="0 0 101 19" fill="none" xmlns="http://www.w3.org/2000/svg">
<g clip-path="url(#clip0_135_3750)">
<path d="M1.26449 17.3592C0.36955 16.0926 -0.0747041 14.5739 1.02073e-05 13.0367V6.63014C-0.108365 5.07639 0.308071 3.53082 1.18546 2.23044C2.05478 1.227 3.39829 0.76387 5.37403 0.76387C7.34978 0.76387 8.61425 1.227 9.40455 2.07606C10.2626 3.15147 10.6846 4.49803 10.59 5.85826V7.40202H6.71754V5.6267C6.74881 5.10163 6.66808 4.57594 6.48045 4.08294C6.38016 3.88394 6.2212 3.7188 6.02403 3.60876C5.82686 3.49871 5.60049 3.4488 5.37403 3.46544C4.82082 3.46544 4.42568 3.61982 4.26762 4.00576C4.08883 4.55419 4.00862 5.12872 4.03053 5.70389V13.963C3.98879 14.521 4.0978 15.08 4.34665 15.5839C4.5047 15.9699 4.89985 16.1242 5.45306 16.1242C6.00627 16.1242 6.32239 15.9699 6.48045 15.5839C6.66013 15.0623 6.74049 14.5129 6.71754 13.963V12.1105H10.59V13.6542C10.6704 15.0366 10.2508 16.4027 9.40455 17.5136C8.61425 18.4399 7.27075 18.903 5.37403 18.903C3.47732 18.8258 2.05478 18.3627 1.26449 17.3592Z" fill="#111111"/>
<path d="M15.2527 0.995731H19.7574L23.0767 18.5945H19.4413L18.8091 14.8895H16.2011L15.5689 18.5945H11.8545L15.2527 0.995731ZM18.493 12.5739L17.5446 5.70418L16.5963 12.5739H18.493Z" fill="#111111"/>
<path d="M25.8427 3.92887H23.1557V0.995731H32.5602V3.85168H29.8732V18.5945H25.8427V3.92887Z" fill="#111111"/>
<path d="M39.752 0.995731H46.7066V2.84824H42.2019V8.63732H45.8372V10.4126H42.2019V16.8964H46.7066V18.6717H39.6729V0.995731H39.752Z" fill="#111111"/>
<path d="M48.7613 0.995731H50.5L55.6369 12.6511V0.995731H57.6917V18.5945H56.1111L50.8951 6.55325V18.5945H48.7613V0.995731Z" fill="#111111"/>
<path d="M60.0626 0.995731H67.0172V2.84824H62.5125V8.63732H66.1479V10.4126H62.5125V16.8964H67.0172V18.6717H60.0626V0.995731Z" fill="#111111"/>
<path d="M69.072 0.995713H72.7074C74.1375 0.89923 75.5587 1.28027 76.7379 2.07634C77.6072 2.77103 78.0024 4.00604 78.0024 5.62698C78.0024 7.86542 77.2911 9.2548 75.7895 9.71793L78.3185 18.5173H75.8686L73.4977 10.2582H71.5219V18.5173H68.993V0.995713H69.072ZM72.5493 8.56011C73.364 8.62569 74.1761 8.40688 74.8412 7.94261C75.3154 7.55667 75.5524 6.78479 75.5524 5.62698C75.5743 5.05181 75.4941 4.47728 75.3154 3.92885C75.1375 3.53531 74.832 3.20983 74.446 3.00259C73.9017 2.76034 73.3042 2.65423 72.7074 2.69384H71.601V8.48292H72.5493V8.56011Z" fill="#111111"/>
<path d="M81.1635 17.2815C80.342 15.9319 79.9564 14.3717 80.0571 12.8047V6.93839C80.0376 5.81982 80.1705 4.70368 80.4522 3.61931C80.7167 2.80901 81.2437 2.10465 81.9538 1.61243C82.8362 1.10228 83.8542 0.860431 84.8779 0.917743C86.5375 0.917743 87.723 1.30368 88.4343 2.15275C89.2524 3.27389 89.6438 4.63903 89.5407 6.01214V6.62964H87.1698V6.08932C87.1734 5.44287 87.1205 4.7973 87.0117 4.15963C86.9451 3.75667 86.7178 3.39588 86.3795 3.15619C85.9353 2.87142 85.4081 2.73592 84.8779 2.77025C84.3113 2.73479 83.7504 2.89912 83.2973 3.23338C83.1114 3.38637 82.9595 3.57482 82.8508 3.78718C82.742 3.99954 82.6789 4.23134 82.6651 4.46838C82.5609 5.15843 82.5081 5.85494 82.507 6.55245V13.1134C82.4488 14.113 82.6105 15.1131 82.9812 16.0465C83.2973 16.664 83.9296 16.8956 84.8779 16.8956C85.2524 16.9412 85.6322 16.8776 85.9697 16.7127C86.3072 16.5479 86.5873 16.2893 86.7746 15.9694C87.1922 14.9933 87.3812 13.9384 87.3278 12.8818V11.6468H85.036V9.87152H89.6197V18.5937H88.0391L87.802 16.5869C87.5948 17.2594 87.1634 17.8451 86.5763 18.2507C85.9892 18.6563 85.2801 18.8585 84.5618 18.8253C83.9088 18.8628 83.2565 18.7414 82.6633 18.472C82.0702 18.2025 81.5549 17.7935 81.1635 17.2815Z" fill="#111111"/>
<path d="M94.6776 12.4192L90.8052 1.07262H93.1761L95.9421 9.56327L98.6291 1.07262H101L97.1275 12.4192V18.5942H94.7566V12.4192H94.6776Z" fill="#111111"/>
</g>
<defs>
<clipPath id="clip0_135_3750">
<rect width="101" height="18.0619" fill="white" transform="translate(0 0.76387)"/>
</clipPath>
</defs>
</svg>
